<?xml version="1.0" encoding="utf-8"?>
<!-- Generator: Adobe Illustrator 26.0.3, SVG Export Plug-In . SVG Version: 6.00 Build 0)  -->
<svg version="1.1" id="Layer_1" xmlns="http://www.w3.org/2000/svg" xmlns:xlink="http://www.w3.org/1999/xlink" x="0px" y="0px"
	 viewBox="0 0 584.5 214.4" style="enable-background:new 0 0 584.5 214.4;" xml:space="preserve">
<style type="text/css">
	.st0{fill:url(#SVGID_1_);}
	.st1{fill:url(#SVGID_00000158737862440018613510000012638786043182921382_);}
	.st2{fill:none;stroke:#070707;stroke-width:13;stroke-miterlimit:16.6667;}
	.st3{fill:#070707;}
	.st4{stroke:#070707;stroke-width:0.5;stroke-miterlimit:16.6667;}
	.st5{fill:url(#SVGID_00000021830396328755578080000015054453677963936432_);}
	.st6{fill:url(#SVGID_00000094614685960401977380000007628951909874682027_);}
	.st7{fill:url(#SVGID_00000020390502389130586110000006967967127690274947_);}
	.st8{fill:url(#SVGID_00000178179379220812710480000008911885642653641659_);}
	.st9{fill:url(#SVGID_00000120538052548641026820000007202422060794994365_);}
	.st10{fill:url(#SVGID_00000167394796600665721710000001444573063143226807_);}
	.st11{fill:url(#SVGID_00000047018665884198170810000001607228311983272364_);}
	.st12{fill:url(#SVGID_00000158717753470306319770000012399669785087034285_);}
	.st13{fill:url(#SVGID_00000052823805833480596460000013260196175561168812_);}
	.st14{fill:url(#SVGID_00000174571144117228134210000001938911940735075716_);}
	.st15{fill:url(#SVGID_00000111183163264667300910000016486138113785373373_);}
	.st16{fill:url(#SVGID_00000000188012089483986720000014556700198746824359_);}
	.st17{fill:url(#SVGID_00000055698269153410790280000009428611919822973328_);}
	.st18{fill:url(#SVGID_00000097483384157922093440000003596544855913911470_);}
	.st19{fill:url(#SVGID_00000137852830647700861240000003586965302669767083_);}
	.st20{fill:url(#SVGID_00000039821366932402940160000017550534717531083949_);}
	.st21{fill:url(#SVGID_00000129163347108434171060000017102754690709155472_);}
	.st22{fill:url(#SVGID_00000084492735142843163290000014885328456291038392_);}
	.st23{fill:url(#SVGID_00000142151653532501466590000013440124265168813751_);}
	.st24{fill:url(#SVGID_00000036213227570068016540000012316471531982741898_);}
	.st25{fill:url(#SVGID_00000029043553247790361430000016645471922775585950_);}
	.st26{fill:url(#SVGID_00000127007594668087182850000000773962908569054618_);}
	.st27{fill:url(#SVGID_00000023982435704724102330000001607054470292132274_);}
	.st28{fill:url(#SVGID_00000127732589026533947310000001741192392366337980_);}
	.st29{fill:url(#SVGID_00000023278623936350849130000010768348843493508761_);}
	.st30{fill:url(#SVGID_00000147899932094287580050000008238032222263356579_);}
	.st31{fill:url(#SVGID_00000025428550951987651130000003267757086941597356_);}
	.st32{fill:url(#SVGID_00000106848047583797484090000009569644959602241176_);}
</style>
<g>
	<g>
		
			<linearGradient id="SVGID_1_" gradientUnits="userSpaceOnUse" x1="-12.5475" y1="688.0123" x2="-12.6715" y2="688.1547" gradientTransform="matrix(765.0074 0 0 -382.867 9755.6436 263572.0938)">
			<stop  offset="0.18" style="stop-color:#385CA5"/>
			<stop  offset="1" style="stop-color:#4C7ABA"/>
		</linearGradient>
		<path class="st0" d="M18.2,111.2c-1.6,2.6-3.3,5.5-4.8,7.9c-1.3,2.3-0.6,5.2,1.6,6.6l31.3,19.3c1.1,0.7,2.4,0.9,3.7,0.6
			s2.3-1.1,3-2.2c1.3-2.1,2.9-4.8,4.6-7.7c12.4-20.5,24.9-18,47.4-7.2l31.1,14.8c1.2,0.6,2.5,0.6,3.8,0.2s2.2-1.4,2.7-2.6l14.9-33.8
			c1.1-2.4,0-5.2-2.4-6.3c-6.6-3.1-19.6-9.2-31.3-14.9C81.6,65.1,45.7,66.5,18.2,111.2z"/>
		
			<linearGradient id="SVGID_00000036209142992299525760000015251655103001837217_" gradientUnits="userSpaceOnUse" x1="-12.7684" y1="687.4381" x2="-12.6445" y2="687.2959" gradientTransform="matrix(765.5154 0 0 -383.3692 9794.6631 263533.4375)">
			<stop  offset="0.18" style="stop-color:#385CA5"/>
			<stop  offset="1" style="stop-color:#4C7ABA"/>
		</linearGradient>
		<path style="fill:url(#SVGID_00000036209142992299525760000015251655103001837217_);" d="M158.8,34.6c1.6-2.6,3.3-5.5,4.8-7.9
			c1.3-2.3,0.6-5.2-1.6-6.6L130.6,0.8c-1.1-0.7-2.5-1-3.8-0.7s-2.4,1.1-3.1,2.3c-1.3,2.1-2.9,4.8-4.6,7.7
			c-12.4,20.5-24.9,18-47.4,7.2l-31-14.7c-1.2-0.6-2.5-0.6-3.8-0.2c-1.2,0.5-2.2,1.4-2.7,2.6L19.3,38.8c-1.1,2.4,0,5.2,2.4,6.3
			c6.6,3.1,19.6,9.2,31.3,14.9C95.4,80.6,131.3,79.2,158.8,34.6z"/>
	</g>
	<g>
		<path class="st2" d="M365.7,6.7h195.1c6.1,0,11,4.9,11,11V125c0,6.1-4.9,11-11,11H365.7c-6.1,0-11-4.9-11-11V17.6
			C354.7,11.6,359.6,6.7,365.7,6.7z"/>
		<path class="st3" d="M382.1,108.6V34.1H404L426,61.5l21.9-27.4h21.9v74.5h-21.9V65.9L426,93.2L404,65.9v42.7H382.1z M519.1,108.6
			l-32.9-36.2h21.9V34.1h21.9v38.4H552L519.1,108.6z"/>
	</g>
	<polygon class="st3" points="296.5,73.2 260.3,106 260.3,84.1 222,84.1 222,62.2 260.3,62.2 260.3,40.3 	"/>
</g>
<g>
	<g>
		<g>
			<path class="st4" d="M1.3,194.4c0-7.1,5.4-13.3,12.6-13.3c2.7,0,4.7,1.3,5.7,2.6l-3.7,3.9c-0.8-0.8-1.4-1.2-2.4-1.2
				c-3,0-5.3,3.5-5.3,7.8c0,2.1,1,3.4,3,3.4c1.3,0,2.1-0.6,2.9-1.2l2.8,4.1c-1.6,1.2-3.8,2.4-7.1,2.4C5,203.2,1.3,200,1.3,194.4z"/>
			<path class="st4" d="M20.1,194.4c0-8.1,6.1-13.3,11.9-13.3c5,0,8.4,3.5,8.4,8.7c0,8.1-6.1,13.3-11.9,13.3
				C23.4,203.2,20.1,199.6,20.1,194.4z M33.6,190c0-2.1-0.8-3.4-2.4-3.4c-2.4,0-4.4,3.3-4.4,7.8c0,2.1,0.8,3.4,2.4,3.4
				C31.7,197.8,33.6,194.5,33.6,190z"/>
			<path class="st4" d="M46.1,181.7h5.5v2.7h0.2c1.9-1.7,4.3-3.2,7-3.2c3.4,0,5,1.8,5,5.5c0,0.9-0.1,2-0.3,3l-2.6,13H54l2.4-12.2
				c0.2-0.8,0.3-1.3,0.3-1.8c0-1.2-0.7-1.8-1.8-1.8c-1.2,0-2.2,0.8-3.7,2.4l-2.6,13.4H42L46.1,181.7z"/>
			<path class="st4" d="M68.2,181.9l2.8-0.3l0.1-0.6c0.8-4.4,3.4-8.1,8.7-8.1c1.7,0,3.4,0.4,4.8,1.2l-2.1,4.7
				c-0.4-0.3-1.3-0.6-1.9-0.6c-1.4,0-2.3,0.3-2.7,2.6l-0.2,0.8h3.4l-1,5.2h-3.5l-3.1,15.8h-6.7l3.2-15.8h-2.7L68.2,181.9z"/>
			<path class="st4" d="M81.1,198.5c0-0.8,0.1-1.7,0.3-2.9l4.5-22.3h6.7l-4.5,22.5c-0.1,0.4-0.1,0.6-0.1,0.8c0,0.8,0.4,1,0.8,1
				c0.3,0,0.4,0,0.8-0.1l-0.3,5c-0.8,0.3-1.9,0.5-3.4,0.5C82.5,203.2,81.1,201.4,81.1,198.5z"/>
			<path class="st4" d="M110.4,202.7h-5.5V200h-0.2c-1.8,1.7-4.2,3.2-6.7,3.2c-3.4,0-5-1.8-5-5.5c0-0.9,0.1-2,0.3-3l2.6-13h6.7
				l-2.4,12.2c-0.2,0.8-0.3,1.3-0.3,1.8c0,1.2,0.7,1.8,1.8,1.8c1.1,0,2.1-0.8,3.4-2.4l2.6-13.4h6.7L110.4,202.7z"/>
			<path class="st4" d="M127.8,181.2c5.1,0,7,3.6,7,8c0,2.1-0.8,4.5-1.2,5h-11.3c0.1,2.8,1.9,3.9,4.4,3.9c1.2,0,2.6-0.7,3.5-1.3
				l2.4,4.2c-1.7,1.2-4.4,2.2-7.8,2.2c-5.1,0-8.7-3.4-8.7-9.1C116,186.4,122.2,181.2,127.8,181.2z M129.2,190.1
				c0.1-0.3,0.2-0.8,0.2-1.3c0-1.4-0.6-2.5-2.4-2.5c-1.6,0-3.3,1.2-4.2,3.9H129.2z"/>
			<path class="st4" d="M140.4,181.7h5.5v2.7h0.2c1.9-1.7,4.3-3.2,7-3.2c3.4,0,5,1.8,5,5.5c0,0.9-0.1,2-0.3,3l-2.6,13h-6.7l2.4-12.2
				c0.2-0.8,0.3-1.3,0.3-1.8c0-1.2-0.7-1.8-1.8-1.8c-1.2,0-2.2,0.8-3.7,2.4l-2.6,13.4h-6.7L140.4,181.7z"/>
			<path class="st4" d="M160.7,194.4c0-7.1,5.4-13.3,12.6-13.3c2.7,0,4.7,1.3,5.7,2.6l-3.7,3.9c-0.8-0.8-1.4-1.2-2.4-1.2
				c-3,0-5.3,3.5-5.3,7.8c0,2.1,1,3.4,3,3.4c1.3,0,2.1-0.6,2.9-1.2l2.8,4.1c-1.6,1.2-3.8,2.4-7.1,2.4
				C164.4,203.2,160.7,200,160.7,194.4z"/>
			<path class="st4" d="M191.3,181.2c5.1,0,7,3.6,7,8c0,2.1-0.8,4.5-1.2,5h-11.3c0.1,2.8,1.9,3.9,4.4,3.9c1.2,0,2.6-0.7,3.5-1.3
				l2.4,4.2c-1.7,1.2-4.4,2.2-7.8,2.2c-5.1,0-8.7-3.4-8.7-9.1C179.4,186.4,185.6,181.2,191.3,181.2z M192.6,190.1
				c0.1-0.3,0.2-0.8,0.2-1.3c0-1.4-0.6-2.5-2.4-2.5c-1.6,0-3.3,1.2-4.2,3.9H192.6z"/>
			<path class="st4" d="M201.8,189.6h10.1l-1,4.7h-10.1L201.8,189.6z"/>
			<path class="st4" d="M217.6,181.7h5.5v2.7h0.2c1.9-1.7,4.3-3.2,6.7-3.2c3,0,4.2,1.3,4.9,3.5c2.2-2,4.5-3.5,7-3.5
				c3.4,0,5,1.8,5,5.5c0,0.9-0.1,2-0.3,3l-2.6,13h-6.7l2.4-12.2c0.2-0.8,0.3-1.3,0.3-1.8c0-1.2-0.7-1.8-1.8-1.8
				c-0.8,0-1.9,0.8-3.4,2.4l-2.7,13.4h-6.7l2.4-12.2c0.2-0.8,0.3-1.3,0.3-1.8c0-1.2-0.7-1.8-1.7-1.8c-0.9,0-2,0.8-3.5,2.4l-2.6,13.4
				h-6.7L217.6,181.7z"/>
			<path class="st4" d="M249.6,195.4c0-8,5.4-14.3,11.2-14.3c1.8,0,3.6,1,4.4,2.6h0.1l0.9-2.1h5.4l-4.2,21h-5.5v-2.6h-0.1
				c-1.8,1.9-4.3,3.1-6.3,3.1C251.7,203.2,249.6,200.4,249.6,195.4z M262.2,194.9l1.3-6.7c-0.5-1.1-1.5-1.6-2.3-1.6
				c-2.4,0-4.7,3.3-4.7,8c0,2.2,0.8,3.1,1.9,3.1C259.6,197.7,261.1,197.2,262.2,194.9z"/>
			<path class="st4" d="M276.3,181.7h5.5l-0.2,4.1h0.2c1.6-2.7,4-4.6,6.4-4.6c1.2,0,1.8,0.2,2.3,0.4l-2.2,5.8
				c-0.6-0.3-1.5-0.3-2.2-0.3c-1.8,0-3.3,1.1-4.9,3.9l-2.3,11.8h-6.7L276.3,181.7z"/>
			<path class="st4" d="M294.8,173.4h6.7l-3.2,15.8h0.2l6.9-7.6h7.4l-8.7,9.3l5,11.7h-6.7l-2.9-7.8l-2.9,2.9l-1,5H289L294.8,173.4z"
				/>
			<path class="st4" d="M328.4,179.6l1.2-6.1h6.7l-5.9,29.2h-5.5v-2.6h-0.1c-1.8,1.9-4.3,3.1-6.3,3.1c-3.7,0-5.9-2.8-5.9-7.7
				c0-8,5.4-14.3,11.2-14.3c1.8,0,3.3,0.9,4,2.4h0.1L328.4,179.6z M325.2,194.9l1.3-6.7c-0.5-1.1-1.5-1.6-2.3-1.6
				c-2.4,0-4.7,3.3-4.7,8c0,2.2,0.8,3.1,1.9,3.1C322.6,197.7,324.1,197.2,325.2,194.9z"/>
			<path class="st4" d="M335.7,194.4c0-8.1,6.1-13.3,11.9-13.3c5,0,8.4,3.5,8.4,8.7c0,8.1-6.1,13.3-11.9,13.3
				C339,203.2,335.7,199.6,335.7,194.4z M349.2,190c0-2.1-0.8-3.4-2.4-3.4c-2.4,0-4.4,3.3-4.4,7.8c0,2.1,0.8,3.4,2.4,3.4
				C347.3,197.8,349.2,194.5,349.2,190z"/>
			<path class="st4" d="M360.3,181.7h6.6l-0.2,9.3c-0.1,2.1-0.3,4.2-0.4,6.3h0.2c0.8-2.1,1.5-4.3,2.4-6.3l3.8-9.3h5.7l0.2,9.3
				c0,2.1-0.1,4.2-0.1,6.3h0.2c0.8-2.1,1.3-4.2,2.1-6.3l3.4-9.3h6.2l-8.7,21h-7.8v-7.8c0.1-1.9,0-3.9,0.2-6.1h-0.2
				c-0.8,2.3-1.4,4.2-2.1,6.1l-3,7.8h-7.6L360.3,181.7z"/>
			<path class="st4" d="M393.8,181.7h5.5v2.7h0.2c1.9-1.7,4.3-3.2,7-3.2c3.4,0,5,1.8,5,5.5c0,0.9-0.1,2-0.3,3l-2.6,13h-6.7l2.4-12.2
				c0.2-0.8,0.3-1.3,0.3-1.8c0-1.2-0.7-1.8-1.8-1.8c-1.2,0-2.2,0.8-3.7,2.4l-2.6,13.4h-6.7L393.8,181.7z"/>
			<path class="st4" d="M415.3,189.6h10.1l-1,4.7h-10.1L415.3,189.6z"/>
			<path class="st4" d="M439.7,181.2c5.1,0,7,3.6,7,8c0,2.1-0.8,4.5-1.2,5h-11.3c0.1,2.8,1.9,3.9,4.4,3.9c1.2,0,2.6-0.7,3.5-1.3
				l2.4,4.2c-1.7,1.2-4.4,2.2-7.8,2.2c-5.1,0-8.7-3.4-8.7-9.1C427.8,186.4,434,181.2,439.7,181.2z M441,190.1
				c0.1-0.3,0.2-0.8,0.2-1.3c0-1.4-0.6-2.5-2.4-2.5c-1.6,0-3.3,1.2-4.2,3.9H441z"/>
			<path class="st4" d="M454.9,191.4l-3.5-9.7h6.8l1,3.2c0.3,1.2,0.6,2.4,0.9,3.6h0.2c0.6-1.2,1.3-2.4,2-3.6l1.6-3.2h7.1l-8.1,11.3
				l3.8,9.7h-6.9l-1.1-3.2c-0.4-1.2-0.7-2.4-1.1-3.6h-0.2c-0.7,1.2-1.4,2.4-2.1,3.6l-1.9,3.2h-7.2L454.9,191.4z"/>
			<path class="st4" d="M475.9,204.8l-1,5.2h-6.7l5.7-28.4h5.5l0.2,2.3h0.1c1.8-1.7,4.1-2.8,6.1-2.8c3.7,0,5.9,2.8,5.9,7.7
				c0,8-5.4,14.3-11.2,14.3c-1.6,0-3.1-0.8-3.9-2.3h-0.1L475.9,204.8z M479.2,189l-1.4,7.1c0.4,1.1,1.3,1.6,2.2,1.6
				c2.4,0,4.7-3.3,4.7-8c0-2.2-0.8-3.1-1.9-3.1C481.7,186.6,480.2,187.1,479.2,189z"/>
			<path class="st4" d="M494,194.4c0-8.1,6.1-13.3,11.9-13.3c5,0,8.4,3.5,8.4,8.7c0,8.1-6.1,13.3-11.9,13.3
				C497.4,203.2,494,199.6,494,194.4z M507.5,190c0-2.1-0.8-3.4-2.4-3.4c-2.4,0-4.4,3.3-4.4,7.8c0,2.1,0.8,3.4,2.4,3.4
				C505.6,197.8,507.5,194.5,507.5,190z"/>
			<path class="st4" d="M520,181.7h5.5l-0.2,4.1h0.2c1.6-2.7,4-4.6,6.4-4.6c1.2,0,1.8,0.2,2.3,0.4l-2.2,5.8
				c-0.6-0.3-1.5-0.3-2.2-0.3c-1.8,0-3.3,1.1-4.9,3.9l-2.3,11.8h-6.7L520,181.7z"/>
			<path class="st4" d="M534.9,197.3c0-0.9,0.2-1.8,0.3-2.8l1.6-7.6h-2.7l1-5l3-0.3l1.8-5.4h5.6l-1,5.4h4.5l-1,5.2h-4.7l-1.6,7.9
				c-0.1,0.5-0.1,0.9-0.1,1.3c0,1.3,0.7,1.8,2,1.8c0.5,0,1-0.2,1.5-0.4l1.2,4.7c-1.2,0.4-2.9,0.9-5.3,0.9
				C536.8,203.2,534.9,200.7,534.9,197.3z"/>
			<path class="st4" d="M561.4,181.2c5.1,0,7,3.6,7,8c0,2.1-0.8,4.5-1.2,5h-11.3c0.1,2.8,1.9,3.9,4.4,3.9c1.2,0,2.6-0.7,3.5-1.3
				l2.4,4.2c-1.7,1.2-4.4,2.2-7.8,2.2c-5.1,0-8.7-3.4-8.7-9.1C549.6,186.4,555.8,181.2,561.4,181.2z M562.8,190.1
				c0.1-0.3,0.2-0.8,0.2-1.3c0-1.4-0.6-2.5-2.4-2.5c-1.6,0-3.3,1.2-4.2,3.9H562.8z"/>
			<path class="st4" d="M574,181.7h5.5l-0.2,4.1h0.2c1.6-2.7,4-4.6,6.4-4.6c1.2,0,1.8,0.2,2.3,0.4l-2.2,5.8
				c-0.6-0.3-1.5-0.3-2.2-0.3c-1.8,0-3.3,1.1-4.9,3.9l-2.3,11.8h-6.7L574,181.7z"/>
		</g>
	</g>
	<g>
		
			<linearGradient id="SVGID_00000096740948724413037690000003104711956998524035_" gradientUnits="userSpaceOnUse" x1="1.3423" y1="191.4848" x2="588.1626" y2="191.4848">
			<stop  offset="0.2945" style="stop-color:#3C68AD"/>
			<stop  offset="0.3552" style="stop-color:#3D557F"/>
			<stop  offset="0.4309" style="stop-color:#333F54"/>
			<stop  offset="0.5002" style="stop-color:#272D37"/>
			<stop  offset="0.5609" style="stop-color:#1B1E23"/>
			<stop  offset="0.6104" style="stop-color:#101113"/>
			<stop  offset="0.6427" style="stop-color:#070707"/>
		</linearGradient>
		<path style="fill:url(#SVGID_00000096740948724413037690000003104711956998524035_);" d="M1.3,194.4c0-7.1,5.4-13.3,12.6-13.3
			c2.7,0,4.7,1.3,5.7,2.6l-3.7,3.9c-0.8-0.8-1.4-1.2-2.4-1.2c-3,0-5.3,3.5-5.3,7.8c0,2.1,1,3.4,3,3.4c1.3,0,2.1-0.6,2.9-1.2l2.8,4.1
			c-1.6,1.2-3.8,2.4-7.1,2.4C5,203.2,1.3,200,1.3,194.4z"/>
		
			<linearGradient id="SVGID_00000023252058620673127640000013448010125810386869_" gradientUnits="userSpaceOnUse" x1="1.3423" y1="191.4848" x2="588.1626" y2="191.4848">
			<stop  offset="0.2945" style="stop-color:#3C68AD"/>
			<stop  offset="0.3552" style="stop-color:#3D557F"/>
			<stop  offset="0.4309" style="stop-color:#333F54"/>
			<stop  offset="0.5002" style="stop-color:#272D37"/>
			<stop  offset="0.5609" style="stop-color:#1B1E23"/>
			<stop  offset="0.6104" style="stop-color:#101113"/>
			<stop  offset="0.6427" style="stop-color:#070707"/>
		</linearGradient>
		<path style="fill:url(#SVGID_00000023252058620673127640000013448010125810386869_);" d="M20.1,194.4c0-8.1,6.1-13.3,11.9-13.3
			c5,0,8.4,3.5,8.4,8.7c0,8.1-6.1,13.3-11.9,13.3C23.4,203.2,20.1,199.6,20.1,194.4z M33.6,190c0-2.1-0.8-3.4-2.4-3.4
			c-2.4,0-4.4,3.3-4.4,7.8c0,2.1,0.8,3.4,2.4,3.4C31.7,197.8,33.6,194.5,33.6,190z"/>
		
			<linearGradient id="SVGID_00000000190795758790482910000014810024135799416470_" gradientUnits="userSpaceOnUse" x1="1.3423" y1="191.4848" x2="588.1626" y2="191.4848">
			<stop  offset="0.2945" style="stop-color:#3C68AD"/>
			<stop  offset="0.3552" style="stop-color:#3D557F"/>
			<stop  offset="0.4309" style="stop-color:#333F54"/>
			<stop  offset="0.5002" style="stop-color:#272D37"/>
			<stop  offset="0.5609" style="stop-color:#1B1E23"/>
			<stop  offset="0.6104" style="stop-color:#101113"/>
			<stop  offset="0.6427" style="stop-color:#070707"/>
		</linearGradient>
		<path style="fill:url(#SVGID_00000000190795758790482910000014810024135799416470_);" d="M46.1,181.7h5.5v2.7h0.2
			c1.9-1.7,4.3-3.2,7-3.2c3.4,0,5,1.8,5,5.5c0,0.9-0.1,2-0.3,3l-2.6,13H54l2.4-12.2c0.2-0.8,0.3-1.3,0.3-1.8c0-1.2-0.7-1.8-1.8-1.8
			c-1.2,0-2.2,0.8-3.7,2.4l-2.6,13.4H42L46.1,181.7z"/>
		
			<linearGradient id="SVGID_00000160899159763353877870000000700473361245204121_" gradientUnits="userSpaceOnUse" x1="1.3423" y1="191.4848" x2="588.1626" y2="191.4848">
			<stop  offset="0.2945" style="stop-color:#3C68AD"/>
			<stop  offset="0.3552" style="stop-color:#3D557F"/>
			<stop  offset="0.4309" style="stop-color:#333F54"/>
			<stop  offset="0.5002" style="stop-color:#272D37"/>
			<stop  offset="0.5609" style="stop-color:#1B1E23"/>
			<stop  offset="0.6104" style="stop-color:#101113"/>
			<stop  offset="0.6427" style="stop-color:#070707"/>
		</linearGradient>
		<path style="fill:url(#SVGID_00000160899159763353877870000000700473361245204121_);" d="M68.2,181.9l2.8-0.3l0.1-0.6
			c0.8-4.4,3.4-8.1,8.7-8.1c1.7,0,3.4,0.4,4.8,1.2l-2.1,4.7c-0.4-0.3-1.3-0.6-1.9-0.6c-1.4,0-2.3,0.3-2.7,2.6l-0.2,0.8h3.4l-1,5.2
			h-3.5l-3.1,15.8h-6.7l3.2-15.8h-2.7L68.2,181.9z"/>
		
			<linearGradient id="SVGID_00000048485094947656874120000015966050607749916829_" gradientUnits="userSpaceOnUse" x1="1.3423" y1="191.4848" x2="588.1626" y2="191.4848">
			<stop  offset="0.2945" style="stop-color:#3C68AD"/>
			<stop  offset="0.3552" style="stop-color:#3D557F"/>
			<stop  offset="0.4309" style="stop-color:#333F54"/>
			<stop  offset="0.5002" style="stop-color:#272D37"/>
			<stop  offset="0.5609" style="stop-color:#1B1E23"/>
			<stop  offset="0.6104" style="stop-color:#101113"/>
			<stop  offset="0.6427" style="stop-color:#070707"/>
		</linearGradient>
		<path style="fill:url(#SVGID_00000048485094947656874120000015966050607749916829_);" d="M81.1,198.5c0-0.8,0.1-1.7,0.3-2.9
			l4.5-22.3h6.7l-4.5,22.5c-0.1,0.4-0.1,0.6-0.1,0.8c0,0.8,0.4,1,0.8,1c0.3,0,0.4,0,0.8-0.1l-0.3,5c-0.8,0.3-1.9,0.5-3.4,0.5
			C82.5,203.2,81.1,201.4,81.1,198.5z"/>
		
			<linearGradient id="SVGID_00000044146504645199668140000012893979538097352596_" gradientUnits="userSpaceOnUse" x1="1.3423" y1="191.4848" x2="588.1626" y2="191.4848">
			<stop  offset="0.2945" style="stop-color:#3C68AD"/>
			<stop  offset="0.3552" style="stop-color:#3D557F"/>
			<stop  offset="0.4309" style="stop-color:#333F54"/>
			<stop  offset="0.5002" style="stop-color:#272D37"/>
			<stop  offset="0.5609" style="stop-color:#1B1E23"/>
			<stop  offset="0.6104" style="stop-color:#101113"/>
			<stop  offset="0.6427" style="stop-color:#070707"/>
		</linearGradient>
		<path style="fill:url(#SVGID_00000044146504645199668140000012893979538097352596_);" d="M110.4,202.7h-5.5V200h-0.2
			c-1.8,1.7-4.2,3.2-6.7,3.2c-3.4,0-5-1.8-5-5.5c0-0.9,0.1-2,0.3-3l2.6-13h6.7l-2.4,12.2c-0.2,0.8-0.3,1.3-0.3,1.8
			c0,1.2,0.7,1.8,1.8,1.8c1.1,0,2.1-0.8,3.4-2.4l2.6-13.4h6.7L110.4,202.7z"/>
		
			<linearGradient id="SVGID_00000090278895295710015540000018181899579942769032_" gradientUnits="userSpaceOnUse" x1="1.3423" y1="191.4848" x2="588.1626" y2="191.4848">
			<stop  offset="0.2945" style="stop-color:#3C68AD"/>
			<stop  offset="0.3552" style="stop-color:#3D557F"/>
			<stop  offset="0.4309" style="stop-color:#333F54"/>
			<stop  offset="0.5002" style="stop-color:#272D37"/>
			<stop  offset="0.5609" style="stop-color:#1B1E23"/>
			<stop  offset="0.6104" style="stop-color:#101113"/>
			<stop  offset="0.6427" style="stop-color:#070707"/>
		</linearGradient>
		<path style="fill:url(#SVGID_00000090278895295710015540000018181899579942769032_);" d="M127.8,181.2c5.1,0,7,3.6,7,8
			c0,2.1-0.8,4.5-1.2,5h-11.3c0.1,2.8,1.9,3.9,4.4,3.9c1.2,0,2.6-0.7,3.5-1.3l2.4,4.2c-1.7,1.2-4.4,2.2-7.8,2.2
			c-5.1,0-8.7-3.4-8.7-9.1C116,186.4,122.2,181.2,127.8,181.2z M129.2,190.1c0.1-0.3,0.2-0.8,0.2-1.3c0-1.4-0.6-2.5-2.4-2.5
			c-1.6,0-3.3,1.2-4.2,3.9H129.2z"/>
		
			<linearGradient id="SVGID_00000003090599708514443220000011421825171990546352_" gradientUnits="userSpaceOnUse" x1="1.3423" y1="191.4848" x2="588.1626" y2="191.4848">
			<stop  offset="0.2945" style="stop-color:#3C68AD"/>
			<stop  offset="0.3552" style="stop-color:#3D557F"/>
			<stop  offset="0.4309" style="stop-color:#333F54"/>
			<stop  offset="0.5002" style="stop-color:#272D37"/>
			<stop  offset="0.5609" style="stop-color:#1B1E23"/>
			<stop  offset="0.6104" style="stop-color:#101113"/>
			<stop  offset="0.6427" style="stop-color:#070707"/>
		</linearGradient>
		<path style="fill:url(#SVGID_00000003090599708514443220000011421825171990546352_);" d="M140.4,181.7h5.5v2.7h0.2
			c1.9-1.7,4.3-3.2,7-3.2c3.4,0,5,1.8,5,5.5c0,0.9-0.1,2-0.3,3l-2.6,13h-6.7l2.4-12.2c0.2-0.8,0.3-1.3,0.3-1.8
			c0-1.2-0.7-1.8-1.8-1.8c-1.2,0-2.2,0.8-3.7,2.4l-2.6,13.4h-6.7L140.4,181.7z"/>
		
			<linearGradient id="SVGID_00000108284063234824134490000017522894329843246480_" gradientUnits="userSpaceOnUse" x1="1.3423" y1="191.4848" x2="588.1626" y2="191.4848">
			<stop  offset="0.2945" style="stop-color:#3C68AD"/>
			<stop  offset="0.3552" style="stop-color:#3D557F"/>
			<stop  offset="0.4309" style="stop-color:#333F54"/>
			<stop  offset="0.5002" style="stop-color:#272D37"/>
			<stop  offset="0.5609" style="stop-color:#1B1E23"/>
			<stop  offset="0.6104" style="stop-color:#101113"/>
			<stop  offset="0.6427" style="stop-color:#070707"/>
		</linearGradient>
		<path style="fill:url(#SVGID_00000108284063234824134490000017522894329843246480_);" d="M160.7,194.4c0-7.1,5.4-13.3,12.6-13.3
			c2.7,0,4.7,1.3,5.7,2.6l-3.7,3.9c-0.8-0.8-1.4-1.2-2.4-1.2c-3,0-5.3,3.5-5.3,7.8c0,2.1,1,3.4,3,3.4c1.3,0,2.1-0.6,2.9-1.2l2.8,4.1
			c-1.6,1.2-3.8,2.4-7.1,2.4C164.4,203.2,160.7,200,160.7,194.4z"/>
		
			<linearGradient id="SVGID_00000015313798524779807570000013053112881464496534_" gradientUnits="userSpaceOnUse" x1="1.3423" y1="191.4848" x2="588.1626" y2="191.4848">
			<stop  offset="0.2945" style="stop-color:#3C68AD"/>
			<stop  offset="0.3552" style="stop-color:#3D557F"/>
			<stop  offset="0.4309" style="stop-color:#333F54"/>
			<stop  offset="0.5002" style="stop-color:#272D37"/>
			<stop  offset="0.5609" style="stop-color:#1B1E23"/>
			<stop  offset="0.6104" style="stop-color:#101113"/>
			<stop  offset="0.6427" style="stop-color:#070707"/>
		</linearGradient>
		<path style="fill:url(#SVGID_00000015313798524779807570000013053112881464496534_);" d="M191.3,181.2c5.1,0,7,3.6,7,8
			c0,2.1-0.8,4.5-1.2,5h-11.3c0.1,2.8,1.9,3.9,4.4,3.9c1.2,0,2.6-0.7,3.5-1.3l2.4,4.2c-1.7,1.2-4.4,2.2-7.8,2.2
			c-5.1,0-8.7-3.4-8.7-9.1C179.4,186.4,185.6,181.2,191.3,181.2z M192.6,190.1c0.1-0.3,0.2-0.8,0.2-1.3c0-1.4-0.6-2.5-2.4-2.5
			c-1.6,0-3.3,1.2-4.2,3.9H192.6z"/>
		
			<linearGradient id="SVGID_00000060743533688016757800000003729354663538859165_" gradientUnits="userSpaceOnUse" x1="1.3423" y1="191.4848" x2="588.1626" y2="191.4848">
			<stop  offset="0.2945" style="stop-color:#3C68AD"/>
			<stop  offset="0.3552" style="stop-color:#3D557F"/>
			<stop  offset="0.4309" style="stop-color:#333F54"/>
			<stop  offset="0.5002" style="stop-color:#272D37"/>
			<stop  offset="0.5609" style="stop-color:#1B1E23"/>
			<stop  offset="0.6104" style="stop-color:#101113"/>
			<stop  offset="0.6427" style="stop-color:#070707"/>
		</linearGradient>
		<path style="fill:url(#SVGID_00000060743533688016757800000003729354663538859165_);" d="M201.8,189.6h10.1l-1,4.7h-10.1
			L201.8,189.6z"/>
		
			<linearGradient id="SVGID_00000063602280353049464550000009041845023116272049_" gradientUnits="userSpaceOnUse" x1="1.3423" y1="191.4848" x2="588.1626" y2="191.4848">
			<stop  offset="0.2945" style="stop-color:#3C68AD"/>
			<stop  offset="0.3552" style="stop-color:#3D557F"/>
			<stop  offset="0.4309" style="stop-color:#333F54"/>
			<stop  offset="0.5002" style="stop-color:#272D37"/>
			<stop  offset="0.5609" style="stop-color:#1B1E23"/>
			<stop  offset="0.6104" style="stop-color:#101113"/>
			<stop  offset="0.6427" style="stop-color:#070707"/>
		</linearGradient>
		<path style="fill:url(#SVGID_00000063602280353049464550000009041845023116272049_);" d="M217.6,181.7h5.5v2.7h0.2
			c1.9-1.7,4.3-3.2,6.7-3.2c3,0,4.2,1.3,4.9,3.5c2.2-2,4.5-3.5,7-3.5c3.4,0,5,1.8,5,5.5c0,0.9-0.1,2-0.3,3l-2.6,13h-6.7l2.4-12.2
			c0.2-0.8,0.3-1.3,0.3-1.8c0-1.2-0.7-1.8-1.8-1.8c-0.8,0-1.9,0.8-3.4,2.4l-2.7,13.4h-6.7l2.4-12.2c0.2-0.8,0.3-1.3,0.3-1.8
			c0-1.2-0.7-1.8-1.7-1.8c-0.9,0-2,0.8-3.5,2.4l-2.6,13.4h-6.7L217.6,181.7z"/>
		
			<linearGradient id="SVGID_00000005985286521971607490000018386828486796372626_" gradientUnits="userSpaceOnUse" x1="1.3423" y1="191.4848" x2="588.1626" y2="191.4848">
			<stop  offset="0.2945" style="stop-color:#3C68AD"/>
			<stop  offset="0.3552" style="stop-color:#3D557F"/>
			<stop  offset="0.4309" style="stop-color:#333F54"/>
			<stop  offset="0.5002" style="stop-color:#272D37"/>
			<stop  offset="0.5609" style="stop-color:#1B1E23"/>
			<stop  offset="0.6104" style="stop-color:#101113"/>
			<stop  offset="0.6427" style="stop-color:#070707"/>
		</linearGradient>
		<path style="fill:url(#SVGID_00000005985286521971607490000018386828486796372626_);" d="M249.6,195.4c0-8,5.4-14.3,11.2-14.3
			c1.8,0,3.6,1,4.4,2.6h0.1l0.9-2.1h5.4l-4.2,21h-5.5v-2.6h-0.1c-1.8,1.9-4.3,3.1-6.3,3.1C251.7,203.2,249.6,200.4,249.6,195.4z
			 M262.2,194.9l1.3-6.7c-0.5-1.1-1.5-1.6-2.3-1.6c-2.4,0-4.7,3.3-4.7,8c0,2.2,0.8,3.1,1.9,3.1C259.6,197.7,261.1,197.2,262.2,194.9
			z"/>
		
			<linearGradient id="SVGID_00000152958714655656470160000007816518103598858396_" gradientUnits="userSpaceOnUse" x1="1.3423" y1="191.4848" x2="588.1626" y2="191.4848">
			<stop  offset="0.2945" style="stop-color:#3C68AD"/>
			<stop  offset="0.3552" style="stop-color:#3D557F"/>
			<stop  offset="0.4309" style="stop-color:#333F54"/>
			<stop  offset="0.5002" style="stop-color:#272D37"/>
			<stop  offset="0.5609" style="stop-color:#1B1E23"/>
			<stop  offset="0.6104" style="stop-color:#101113"/>
			<stop  offset="0.6427" style="stop-color:#070707"/>
		</linearGradient>
		<path style="fill:url(#SVGID_00000152958714655656470160000007816518103598858396_);" d="M276.3,181.7h5.5l-0.2,4.1h0.2
			c1.6-2.7,4-4.6,6.4-4.6c1.2,0,1.8,0.2,2.3,0.4l-2.2,5.8c-0.6-0.3-1.5-0.3-2.2-0.3c-1.8,0-3.3,1.1-4.9,3.9l-2.3,11.8h-6.7
			L276.3,181.7z"/>
		
			<linearGradient id="SVGID_00000005259936823727821450000015829148748192504204_" gradientUnits="userSpaceOnUse" x1="1.3423" y1="191.4848" x2="588.1626" y2="191.4848">
			<stop  offset="0.2945" style="stop-color:#3C68AD"/>
			<stop  offset="0.3552" style="stop-color:#3D557F"/>
			<stop  offset="0.4309" style="stop-color:#333F54"/>
			<stop  offset="0.5002" style="stop-color:#272D37"/>
			<stop  offset="0.5609" style="stop-color:#1B1E23"/>
			<stop  offset="0.6104" style="stop-color:#101113"/>
			<stop  offset="0.6427" style="stop-color:#070707"/>
		</linearGradient>
		<path style="fill:url(#SVGID_00000005259936823727821450000015829148748192504204_);" d="M294.8,173.4h6.7l-3.2,15.8h0.2l6.9-7.6
			h7.4l-8.7,9.3l5,11.7h-6.7l-2.9-7.8l-2.9,2.9l-1,5H289L294.8,173.4z"/>
		
			<linearGradient id="SVGID_00000006701079467694754900000008914712350781204361_" gradientUnits="userSpaceOnUse" x1="1.3423" y1="191.4848" x2="588.1626" y2="191.4848">
			<stop  offset="0.2945" style="stop-color:#3C68AD"/>
			<stop  offset="0.3552" style="stop-color:#3D557F"/>
			<stop  offset="0.4309" style="stop-color:#333F54"/>
			<stop  offset="0.5002" style="stop-color:#272D37"/>
			<stop  offset="0.5609" style="stop-color:#1B1E23"/>
			<stop  offset="0.6104" style="stop-color:#101113"/>
			<stop  offset="0.6427" style="stop-color:#070707"/>
		</linearGradient>
		<path style="fill:url(#SVGID_00000006701079467694754900000008914712350781204361_);" d="M328.4,179.6l1.2-6.1h6.7l-5.9,29.2h-5.5
			v-2.6h-0.1c-1.8,1.9-4.3,3.1-6.3,3.1c-3.7,0-5.9-2.8-5.9-7.7c0-8,5.4-14.3,11.2-14.3c1.8,0,3.3,0.9,4,2.4h0.1L328.4,179.6z
			 M325.2,194.9l1.3-6.7c-0.5-1.1-1.5-1.6-2.3-1.6c-2.4,0-4.7,3.3-4.7,8c0,2.2,0.8,3.1,1.9,3.1C322.6,197.7,324.1,197.2,325.2,194.9
			z"/>
		
			<linearGradient id="SVGID_00000078019737823892730930000018213892784821683328_" gradientUnits="userSpaceOnUse" x1="1.3423" y1="191.4848" x2="588.1626" y2="191.4848">
			<stop  offset="0.2945" style="stop-color:#3C68AD"/>
			<stop  offset="0.3552" style="stop-color:#3D557F"/>
			<stop  offset="0.4309" style="stop-color:#333F54"/>
			<stop  offset="0.5002" style="stop-color:#272D37"/>
			<stop  offset="0.5609" style="stop-color:#1B1E23"/>
			<stop  offset="0.6104" style="stop-color:#101113"/>
			<stop  offset="0.6427" style="stop-color:#070707"/>
		</linearGradient>
		<path style="fill:url(#SVGID_00000078019737823892730930000018213892784821683328_);" d="M335.7,194.4c0-8.1,6.1-13.3,11.9-13.3
			c5,0,8.4,3.5,8.4,8.7c0,8.1-6.1,13.3-11.9,13.3C339,203.2,335.7,199.6,335.7,194.4z M349.2,190c0-2.1-0.8-3.4-2.4-3.4
			c-2.4,0-4.4,3.3-4.4,7.8c0,2.1,0.8,3.4,2.4,3.4C347.3,197.8,349.2,194.5,349.2,190z"/>
		
			<linearGradient id="SVGID_00000031172582721183926650000016189817351759125379_" gradientUnits="userSpaceOnUse" x1="1.3423" y1="191.4848" x2="588.1626" y2="191.4848">
			<stop  offset="0.2945" style="stop-color:#3C68AD"/>
			<stop  offset="0.3552" style="stop-color:#3D557F"/>
			<stop  offset="0.4309" style="stop-color:#333F54"/>
			<stop  offset="0.5002" style="stop-color:#272D37"/>
			<stop  offset="0.5609" style="stop-color:#1B1E23"/>
			<stop  offset="0.6104" style="stop-color:#101113"/>
			<stop  offset="0.6427" style="stop-color:#070707"/>
		</linearGradient>
		<path style="fill:url(#SVGID_00000031172582721183926650000016189817351759125379_);" d="M360.3,181.7h6.6l-0.2,9.3
			c-0.1,2.1-0.3,4.2-0.4,6.3h0.2c0.8-2.1,1.5-4.3,2.4-6.3l3.8-9.3h5.7l0.2,9.3c0,2.1-0.1,4.2-0.1,6.3h0.2c0.8-2.1,1.3-4.2,2.1-6.3
			l3.4-9.3h6.2l-8.7,21h-7.8v-7.8c0.1-1.9,0-3.9,0.2-6.1h-0.2c-0.8,2.3-1.4,4.2-2.1,6.1l-3,7.8h-7.6L360.3,181.7z"/>
		
			<linearGradient id="SVGID_00000134210669849590743930000013687898498028354991_" gradientUnits="userSpaceOnUse" x1="1.3423" y1="191.4848" x2="588.1626" y2="191.4848">
			<stop  offset="0.2945" style="stop-color:#3C68AD"/>
			<stop  offset="0.3552" style="stop-color:#3D557F"/>
			<stop  offset="0.4309" style="stop-color:#333F54"/>
			<stop  offset="0.5002" style="stop-color:#272D37"/>
			<stop  offset="0.5609" style="stop-color:#1B1E23"/>
			<stop  offset="0.6104" style="stop-color:#101113"/>
			<stop  offset="0.6427" style="stop-color:#070707"/>
		</linearGradient>
		<path style="fill:url(#SVGID_00000134210669849590743930000013687898498028354991_);" d="M393.8,181.7h5.5v2.7h0.2
			c1.9-1.7,4.3-3.2,7-3.2c3.4,0,5,1.8,5,5.5c0,0.9-0.1,2-0.3,3l-2.6,13h-6.7l2.4-12.2c0.2-0.8,0.3-1.3,0.3-1.8
			c0-1.2-0.7-1.8-1.8-1.8c-1.2,0-2.2,0.8-3.7,2.4l-2.6,13.4h-6.7L393.8,181.7z"/>
		
			<linearGradient id="SVGID_00000011028926513928837770000016631422222926343040_" gradientUnits="userSpaceOnUse" x1="1.3423" y1="191.4848" x2="588.1626" y2="191.4848">
			<stop  offset="0.2945" style="stop-color:#3C68AD"/>
			<stop  offset="0.3552" style="stop-color:#3D557F"/>
			<stop  offset="0.4309" style="stop-color:#333F54"/>
			<stop  offset="0.5002" style="stop-color:#272D37"/>
			<stop  offset="0.5609" style="stop-color:#1B1E23"/>
			<stop  offset="0.6104" style="stop-color:#101113"/>
			<stop  offset="0.6427" style="stop-color:#070707"/>
		</linearGradient>
		<path style="fill:url(#SVGID_00000011028926513928837770000016631422222926343040_);" d="M415.3,189.6h10.1l-1,4.7h-10.1
			L415.3,189.6z"/>
		
			<linearGradient id="SVGID_00000086650326353138157000000010882637795834506628_" gradientUnits="userSpaceOnUse" x1="1.3423" y1="191.4848" x2="588.1626" y2="191.4848">
			<stop  offset="0.2945" style="stop-color:#3C68AD"/>
			<stop  offset="0.3552" style="stop-color:#3D557F"/>
			<stop  offset="0.4309" style="stop-color:#333F54"/>
			<stop  offset="0.5002" style="stop-color:#272D37"/>
			<stop  offset="0.5609" style="stop-color:#1B1E23"/>
			<stop  offset="0.6104" style="stop-color:#101113"/>
			<stop  offset="0.6427" style="stop-color:#070707"/>
		</linearGradient>
		<path style="fill:url(#SVGID_00000086650326353138157000000010882637795834506628_);" d="M439.7,181.2c5.1,0,7,3.6,7,8
			c0,2.1-0.8,4.5-1.2,5h-11.3c0.1,2.8,1.9,3.9,4.4,3.9c1.2,0,2.6-0.7,3.5-1.3l2.4,4.2c-1.7,1.2-4.4,2.2-7.8,2.2
			c-5.1,0-8.7-3.4-8.7-9.1C427.8,186.4,434,181.2,439.7,181.2z M441,190.1c0.1-0.3,0.2-0.8,0.2-1.3c0-1.4-0.6-2.5-2.4-2.5
			c-1.6,0-3.3,1.2-4.2,3.9H441z"/>
		
			<linearGradient id="SVGID_00000170974471523586077840000011706759233660193440_" gradientUnits="userSpaceOnUse" x1="1.3423" y1="191.4848" x2="588.1626" y2="191.4848">
			<stop  offset="0.2945" style="stop-color:#3C68AD"/>
			<stop  offset="0.3552" style="stop-color:#3D557F"/>
			<stop  offset="0.4309" style="stop-color:#333F54"/>
			<stop  offset="0.5002" style="stop-color:#272D37"/>
			<stop  offset="0.5609" style="stop-color:#1B1E23"/>
			<stop  offset="0.6104" style="stop-color:#101113"/>
			<stop  offset="0.6427" style="stop-color:#070707"/>
		</linearGradient>
		<path style="fill:url(#SVGID_00000170974471523586077840000011706759233660193440_);" d="M454.9,191.4l-3.5-9.7h6.8l1,3.2
			c0.3,1.2,0.6,2.4,0.9,3.6h0.2c0.6-1.2,1.3-2.4,2-3.6l1.6-3.2h7.1l-8.1,11.3l3.8,9.7h-6.9l-1.1-3.2c-0.4-1.2-0.7-2.4-1.1-3.6h-0.2
			c-0.7,1.2-1.4,2.4-2.1,3.6l-1.9,3.2h-7.2L454.9,191.4z"/>
		
			<linearGradient id="SVGID_00000120522979335065583190000006104207324033644729_" gradientUnits="userSpaceOnUse" x1="1.3423" y1="191.4848" x2="588.1626" y2="191.4848">
			<stop  offset="0.2945" style="stop-color:#3C68AD"/>
			<stop  offset="0.3552" style="stop-color:#3D557F"/>
			<stop  offset="0.4309" style="stop-color:#333F54"/>
			<stop  offset="0.5002" style="stop-color:#272D37"/>
			<stop  offset="0.5609" style="stop-color:#1B1E23"/>
			<stop  offset="0.6104" style="stop-color:#101113"/>
			<stop  offset="0.6427" style="stop-color:#070707"/>
		</linearGradient>
		<path style="fill:url(#SVGID_00000120522979335065583190000006104207324033644729_);" d="M475.9,204.8l-1,5.2h-6.7l5.7-28.4h5.5
			l0.2,2.3h0.1c1.8-1.7,4.1-2.8,6.1-2.8c3.7,0,5.9,2.8,5.9,7.7c0,8-5.4,14.3-11.2,14.3c-1.6,0-3.1-0.8-3.9-2.3h-0.1L475.9,204.8z
			 M479.2,189l-1.4,7.1c0.4,1.1,1.3,1.6,2.2,1.6c2.4,0,4.7-3.3,4.7-8c0-2.2-0.8-3.1-1.9-3.1C481.7,186.6,480.2,187.1,479.2,189z"/>
		
			<linearGradient id="SVGID_00000012467067173807523640000011740942572183978128_" gradientUnits="userSpaceOnUse" x1="1.3423" y1="191.4848" x2="588.1626" y2="191.4848">
			<stop  offset="0.2945" style="stop-color:#3C68AD"/>
			<stop  offset="0.3552" style="stop-color:#3D557F"/>
			<stop  offset="0.4309" style="stop-color:#333F54"/>
			<stop  offset="0.5002" style="stop-color:#272D37"/>
			<stop  offset="0.5609" style="stop-color:#1B1E23"/>
			<stop  offset="0.6104" style="stop-color:#101113"/>
			<stop  offset="0.6427" style="stop-color:#070707"/>
		</linearGradient>
		<path style="fill:url(#SVGID_00000012467067173807523640000011740942572183978128_);" d="M494,194.4c0-8.1,6.1-13.3,11.9-13.3
			c5,0,8.4,3.5,8.4,8.7c0,8.1-6.1,13.3-11.9,13.3C497.4,203.2,494,199.6,494,194.4z M507.5,190c0-2.1-0.8-3.4-2.4-3.4
			c-2.4,0-4.4,3.3-4.4,7.8c0,2.1,0.8,3.4,2.4,3.4C505.6,197.8,507.5,194.5,507.5,190z"/>
		
			<linearGradient id="SVGID_00000036962803177427191140000002966219061101555343_" gradientUnits="userSpaceOnUse" x1="1.3423" y1="191.4848" x2="588.1626" y2="191.4848">
			<stop  offset="0.2945" style="stop-color:#3C68AD"/>
			<stop  offset="0.3552" style="stop-color:#3D557F"/>
			<stop  offset="0.4309" style="stop-color:#333F54"/>
			<stop  offset="0.5002" style="stop-color:#272D37"/>
			<stop  offset="0.5609" style="stop-color:#1B1E23"/>
			<stop  offset="0.6104" style="stop-color:#101113"/>
			<stop  offset="0.6427" style="stop-color:#070707"/>
		</linearGradient>
		<path style="fill:url(#SVGID_00000036962803177427191140000002966219061101555343_);" d="M520,181.7h5.5l-0.2,4.1h0.2
			c1.6-2.7,4-4.6,6.4-4.6c1.2,0,1.8,0.2,2.3,0.4l-2.2,5.8c-0.6-0.3-1.5-0.3-2.2-0.3c-1.8,0-3.3,1.1-4.9,3.9l-2.3,11.8h-6.7
			L520,181.7z"/>
		
			<linearGradient id="SVGID_00000089538091607516214290000003107998287205164428_" gradientUnits="userSpaceOnUse" x1="1.3423" y1="191.4848" x2="588.1626" y2="191.4848">
			<stop  offset="0.2945" style="stop-color:#3C68AD"/>
			<stop  offset="0.3552" style="stop-color:#3D557F"/>
			<stop  offset="0.4309" style="stop-color:#333F54"/>
			<stop  offset="0.5002" style="stop-color:#272D37"/>
			<stop  offset="0.5609" style="stop-color:#1B1E23"/>
			<stop  offset="0.6104" style="stop-color:#101113"/>
			<stop  offset="0.6427" style="stop-color:#070707"/>
		</linearGradient>
		<path style="fill:url(#SVGID_00000089538091607516214290000003107998287205164428_);" d="M534.9,197.3c0-0.9,0.2-1.8,0.3-2.8
			l1.6-7.6h-2.7l1-5l3-0.3l1.8-5.4h5.6l-1,5.4h4.5l-1,5.2h-4.7l-1.6,7.9c-0.1,0.5-0.1,0.9-0.1,1.3c0,1.3,0.7,1.8,2,1.8
			c0.5,0,1-0.2,1.5-0.4l1.2,4.7c-1.2,0.4-2.9,0.9-5.3,0.9C536.8,203.2,534.9,200.7,534.9,197.3z"/>
		
			<linearGradient id="SVGID_00000152229241835188962350000015881713086670999710_" gradientUnits="userSpaceOnUse" x1="1.3423" y1="191.4848" x2="588.1626" y2="191.4848">
			<stop  offset="0.2945" style="stop-color:#3C68AD"/>
			<stop  offset="0.3552" style="stop-color:#3D557F"/>
			<stop  offset="0.4309" style="stop-color:#333F54"/>
			<stop  offset="0.5002" style="stop-color:#272D37"/>
			<stop  offset="0.5609" style="stop-color:#1B1E23"/>
			<stop  offset="0.6104" style="stop-color:#101113"/>
			<stop  offset="0.6427" style="stop-color:#070707"/>
		</linearGradient>
		<path style="fill:url(#SVGID_00000152229241835188962350000015881713086670999710_);" d="M561.4,181.2c5.1,0,7,3.6,7,8
			c0,2.1-0.8,4.5-1.2,5h-11.3c0.1,2.8,1.9,3.9,4.4,3.9c1.2,0,2.6-0.7,3.5-1.3l2.4,4.2c-1.7,1.2-4.4,2.2-7.8,2.2
			c-5.1,0-8.7-3.4-8.7-9.1C549.6,186.4,555.8,181.2,561.4,181.2z M562.8,190.1c0.1-0.3,0.2-0.8,0.2-1.3c0-1.4-0.6-2.5-2.4-2.5
			c-1.6,0-3.3,1.2-4.2,3.9H562.8z"/>
		
			<linearGradient id="SVGID_00000091017310978922337900000016220430875414968206_" gradientUnits="userSpaceOnUse" x1="1.3423" y1="191.4848" x2="588.1626" y2="191.4848">
			<stop  offset="0.2945" style="stop-color:#3C68AD"/>
			<stop  offset="0.3552" style="stop-color:#3D557F"/>
			<stop  offset="0.4309" style="stop-color:#333F54"/>
			<stop  offset="0.5002" style="stop-color:#272D37"/>
			<stop  offset="0.5609" style="stop-color:#1B1E23"/>
			<stop  offset="0.6104" style="stop-color:#101113"/>
			<stop  offset="0.6427" style="stop-color:#070707"/>
		</linearGradient>
		<path style="fill:url(#SVGID_00000091017310978922337900000016220430875414968206_);" d="M574,181.7h5.5l-0.2,4.1h0.2
			c1.6-2.7,4-4.6,6.4-4.6c1.2,0,1.8,0.2,2.3,0.4l-2.2,5.8c-0.6-0.3-1.5-0.3-2.2-0.3c-1.8,0-3.3,1.1-4.9,3.9l-2.3,11.8h-6.7
			L574,181.7z"/>
	</g>
</g>
</svg>
