<?xml version="1.0" encoding="utf-8"?>
<!-- Generator: Adobe Illustrator 26.0.3, SVG Export Plug-In . SVG Version: 6.00 Build 0)  -->
<svg version="1.1" id="Layer_1" xmlns="http://www.w3.org/2000/svg" xmlns:xlink="http://www.w3.org/1999/xlink" x="0px" y="0px"
	 viewBox="0 0 611.6 224.5" style="enable-background:new 0 0 611.6 224.5;" xml:space="preserve">
<style type="text/css">
	.st0{fill:#F4F7F9;}
	.st1{fill:url(#SVGID_1_);}
	.st2{fill:url(#SVGID_00000142171925192258401660000003200088686767234181_);}
	.st3{fill:none;stroke:#070707;stroke-width:13;stroke-miterlimit:16.6667;}
	.st4{fill:#070707;}
	.st5{fill:url(#SVGID_00000026148696198819336710000012187894412419602614_);}
	.st6{fill:url(#SVGID_00000183221548231957276960000015944260954836395908_);}
	.st7{fill:url(#SVGID_00000062887711634476606300000012598859273831031461_);}
	.st8{fill:url(#SVGID_00000152245296278992051830000003012303040332373890_);}
	.st9{fill:url(#SVGID_00000059996094687257725130000009148965373338419124_);}
	.st10{fill:url(#SVGID_00000055695331832813724460000016260657361127294364_);}
	.st11{fill:url(#SVGID_00000017517451899815004670000005313722059529274805_);}
	.st12{fill:url(#SVGID_00000005239863115386981800000008304212346592263050_);}
	.st13{fill:url(#SVGID_00000071549939888799789120000008350328674339872387_);}
	.st14{fill:url(#SVGID_00000000209492197896269580000011076064143532208815_);}
	.st15{fill:url(#SVGID_00000097466299222658634470000002543172015257659061_);}
	.st16{fill:url(#SVGID_00000103960025063691090200000006145072861694113156_);}
	.st17{fill:url(#SVGID_00000160910745714325475070000010831697801466481598_);}
	.st18{fill:url(#SVGID_00000002386862740126661540000007624874840894809739_);}
	.st19{fill:url(#SVGID_00000047021358825032362150000002037077852487152569_);}
	.st20{fill:url(#SVGID_00000003084917193391587100000015129656363493663115_);}
	.st21{fill:url(#SVGID_00000112612450373864609150000009322040003812207241_);}
	.st22{fill:url(#SVGID_00000065038050506599508270000017179196795714898067_);}
	.st23{fill:url(#SVGID_00000041291104313110196490000006588124930438587522_);}
	.st24{fill:url(#SVGID_00000169548282696329855400000015109394591693463713_);}
	.st25{fill:url(#SVGID_00000027603386648119434610000010852328309788364451_);}
	.st26{fill:url(#SVGID_00000039832401943842118550000016686764824951780744_);}
	.st27{fill:url(#SVGID_00000016071541003994089700000017018515681347818627_);}
	.st28{fill:url(#SVGID_00000110461039641156458550000002077027852081181870_);}
	.st29{fill:url(#SVGID_00000033349030520345749650000010612548595883421329_);}
	.st30{fill:url(#SVGID_00000102546714432393579920000011964414773357439672_);}
	.st31{fill:url(#SVGID_00000168089921704700201320000005568360101870148512_);}
	.st32{fill:url(#SVGID_00000059995502714964982630000015381392356026184835_);}
</style>
<path class="st0" d="M597.3,224.5H14.3c-7.9,0-14.3-6.4-14.3-14.3V14.3C0,6.4,6.4,0,14.3,0h582.9c7.9,0,14.3,6.4,14.3,14.3v195.8
	C611.6,218.1,605.2,224.5,597.3,224.5z"/>
<g>
	<g>
		
			<linearGradient id="SVGID_1_" gradientUnits="userSpaceOnUse" x1="-16.2163" y1="-175.1382" x2="-16.3403" y2="-175.2806" gradientTransform="matrix(765.0074 0 0 382.867 12571.4443 67217.7344)">
			<stop  offset="0.18" style="stop-color:#385CA5"/>
			<stop  offset="1" style="stop-color:#4C7ABA"/>
		</linearGradient>
		<path class="st1" d="M27.5,119.3c-1.6,2.6-3.3,5.5-4.8,7.9c-1.3,2.3-0.6,5.2,1.6,6.6l31.3,19.3c1.1,0.7,2.4,0.9,3.7,0.6
			s2.3-1.1,3-2.2c1.3-2.1,2.9-4.8,4.6-7.7c12.4-20.5,24.9-18,47.4-7.2l31.1,14.8c1.2,0.6,2.5,0.6,3.8,0.2s2.2-1.4,2.7-2.6l14.9-33.8
			c1.1-2.4,0-5.2-2.4-6.3c-6.6-3.1-19.6-9.2-31.3-14.9C90.9,73.2,55,74.6,27.5,119.3z"/>
		
			<linearGradient id="SVGID_00000089562212401165700910000007986116659975029636_" gradientUnits="userSpaceOnUse" x1="-16.437" y1="-174.5652" x2="-16.3131" y2="-174.423" gradientTransform="matrix(765.5154 0 0 383.3692 12612.3359 66921.8906)">
			<stop  offset="0.18" style="stop-color:#385CA5"/>
			<stop  offset="1" style="stop-color:#4C7ABA"/>
		</linearGradient>
		<path style="fill:url(#SVGID_00000089562212401165700910000007986116659975029636_);" d="M168.1,42.7c1.6-2.6,3.3-5.5,4.8-7.9
			c1.3-2.3,0.6-5.2-1.6-6.6L139.9,8.9c-1.1-0.7-2.5-1-3.8-0.7s-2.4,1.1-3.1,2.3c-1.3,2.1-2.9,4.8-4.6,7.7
			c-12.4,20.5-24.9,18-47.4,7.2L50,10.7c-1.2-0.6-2.5-0.6-3.8-0.2C45,11,44,11.9,43.5,13.1L28.6,46.9c-1.1,2.4,0,5.2,2.4,6.3
			c6.6,3.1,19.6,9.2,31.3,14.9C104.7,88.7,140.6,87.3,168.1,42.7z"/>
	</g>
	<g>
		<path class="st3" d="M375,14.8h195.1c6.1,0,11,4.9,11,11v107.3c0,6.1-4.9,11-11,11H375c-6.1,0-11-4.9-11-11V25.7
			C364,19.7,368.9,14.8,375,14.8z"/>
		<path class="st4" d="M391.4,116.7V42.2h21.9l22,27.4l21.9-27.4h21.9v74.5h-21.9V74l-21.9,27.3l-22-27.3v42.7
			C413.3,116.7,391.4,116.7,391.4,116.7z M528.4,116.7l-32.9-36.2h21.9V42.2h21.9v38.4h22L528.4,116.7z"/>
	</g>
	<polygon class="st4" points="305.8,81.3 269.6,114.1 269.6,92.2 231.3,92.2 231.3,70.3 269.6,70.3 269.6,48.4 	"/>
</g>
<g>
	<g>
		<g>
			<path d="M10.6,202.5c0-7.1,5.4-13.3,12.6-13.3c2.7,0,4.7,1.3,5.7,2.6l-3.7,3.9c-0.8-0.8-1.4-1.2-2.4-1.2c-3,0-5.3,3.5-5.3,7.8
				c0,2.1,1,3.4,3,3.4c1.3,0,2.1-0.6,2.9-1.2l2.8,4.1c-1.6,1.2-3.8,2.4-7.1,2.4C14.3,211.3,10.6,208.1,10.6,202.5z"/>
			<path d="M29.4,202.5c0-8.1,6.1-13.3,11.9-13.3c5,0,8.4,3.5,8.4,8.7c0,8.1-6.1,13.3-11.9,13.3C32.7,211.3,29.4,207.7,29.4,202.5z
				 M42.9,198.1c0-2.1-0.8-3.4-2.4-3.4c-2.4,0-4.4,3.3-4.4,7.8c0,2.1,0.8,3.4,2.4,3.4C41,205.9,42.9,202.6,42.9,198.1z"/>
			<path d="M55.4,189.8h5.5v2.7h0.2c1.9-1.7,4.3-3.2,7-3.2c3.4,0,5,1.8,5,5.5c0,0.9-0.1,2-0.3,3l-2.6,13h-6.9l2.4-12.2
				c0.2-0.8,0.3-1.3,0.3-1.8c0-1.2-0.7-1.8-1.8-1.8c-1.2,0-2.2,0.8-3.7,2.4l-2.6,13.4h-6.6L55.4,189.8z"/>
			<path d="M77.5,190l2.8-0.3l0.1-0.6c0.8-4.4,3.4-8.1,8.7-8.1c1.7,0,3.4,0.4,4.8,1.2l-2.1,4.7c-0.4-0.3-1.3-0.6-1.9-0.6
				c-1.4,0-2.3,0.3-2.7,2.6l-0.2,0.8h3.4l-1,5.2h-3.5l-3.1,15.8h-6.7l3.2-15.8h-2.7L77.5,190z"/>
			<path d="M90.4,206.6c0-0.8,0.1-1.7,0.3-2.9l4.5-22.3h6.7l-4.5,22.5c-0.1,0.4-0.1,0.6-0.1,0.8c0,0.8,0.4,1,0.8,1
				c0.3,0,0.4,0,0.8-0.1l-0.3,5c-0.8,0.3-1.9,0.5-3.4,0.5C91.8,211.3,90.4,209.5,90.4,206.6z"/>
			<path d="M119.7,210.8h-5.5v-2.7H114c-1.8,1.7-4.2,3.2-6.7,3.2c-3.4,0-5-1.8-5-5.5c0-0.9,0.1-2,0.3-3l2.6-13h6.7l-2.4,12.2
				c-0.2,0.8-0.3,1.3-0.3,1.8c0,1.2,0.7,1.8,1.8,1.8c1.1,0,2.1-0.8,3.4-2.4l2.6-13.4h6.7L119.7,210.8z"/>
			<path d="M137.1,189.3c5.1,0,7,3.6,7,8c0,2.1-0.8,4.5-1.2,5h-11.3c0.1,2.8,1.9,3.9,4.4,3.9c1.2,0,2.6-0.7,3.5-1.3l2.4,4.2
				c-1.7,1.2-4.4,2.2-7.8,2.2c-5.1,0-8.7-3.4-8.7-9.1C125.3,194.5,131.5,189.3,137.1,189.3z M138.5,198.2c0.1-0.3,0.2-0.8,0.2-1.3
				c0-1.4-0.6-2.5-2.4-2.5c-1.6,0-3.3,1.2-4.2,3.9L138.5,198.2L138.5,198.2z"/>
			<path d="M149.7,189.8h5.5v2.7h0.2c1.9-1.7,4.3-3.2,7-3.2c3.4,0,5,1.8,5,5.5c0,0.9-0.1,2-0.3,3l-2.6,13h-6.7l2.4-12.2
				c0.2-0.8,0.3-1.3,0.3-1.8c0-1.2-0.7-1.8-1.8-1.8c-1.2,0-2.2,0.8-3.7,2.4l-2.6,13.4h-6.7L149.7,189.8z"/>
			<path d="M170,202.5c0-7.1,5.4-13.3,12.6-13.3c2.7,0,4.7,1.3,5.7,2.6l-3.7,3.9c-0.8-0.8-1.4-1.2-2.4-1.2c-3,0-5.3,3.5-5.3,7.8
				c0,2.1,1,3.4,3,3.4c1.3,0,2.1-0.6,2.9-1.2l2.8,4.1c-1.6,1.2-3.8,2.4-7.1,2.4C173.7,211.3,170,208.1,170,202.5z"/>
			<path d="M200.6,189.3c5.1,0,7,3.6,7,8c0,2.1-0.8,4.5-1.2,5h-11.3c0.1,2.8,1.9,3.9,4.4,3.9c1.2,0,2.6-0.7,3.5-1.3l2.4,4.2
				c-1.7,1.2-4.4,2.2-7.8,2.2c-5.1,0-8.7-3.4-8.7-9.1C188.7,194.5,194.9,189.3,200.6,189.3z M201.9,198.2c0.1-0.3,0.2-0.8,0.2-1.3
				c0-1.4-0.6-2.5-2.4-2.5c-1.6,0-3.3,1.2-4.2,3.9L201.9,198.2L201.9,198.2z"/>
			<path d="M211.1,197.7h10.1l-1,4.7h-10.1L211.1,197.7z"/>
			<path d="M226.9,189.8h5.5v2.7h0.2c1.9-1.7,4.3-3.2,6.7-3.2c3,0,4.2,1.3,4.9,3.5c2.2-2,4.5-3.5,7-3.5c3.4,0,5,1.8,5,5.5
				c0,0.9-0.1,2-0.3,3l-2.6,13h-6.7l2.4-12.2c0.2-0.8,0.3-1.3,0.3-1.8c0-1.2-0.7-1.8-1.8-1.8c-0.8,0-1.9,0.8-3.4,2.4l-2.7,13.4h-6.7
				l2.4-12.2c0.2-0.8,0.3-1.3,0.3-1.8c0-1.2-0.7-1.8-1.7-1.8c-0.9,0-2,0.8-3.5,2.4l-2.6,13.4h-6.7L226.9,189.8z"/>
			<path d="M258.9,203.5c0-8,5.4-14.3,11.2-14.3c1.8,0,3.6,1,4.4,2.6h0.1l0.9-2.1h5.4l-4.2,21h-5.5v-2.6h-0.1
				c-1.8,1.9-4.3,3.1-6.3,3.1C261,211.3,258.9,208.5,258.9,203.5z M271.5,203l1.3-6.7c-0.5-1.1-1.5-1.6-2.3-1.6
				c-2.4,0-4.7,3.3-4.7,8c0,2.2,0.8,3.1,1.9,3.1C268.9,205.8,270.4,205.3,271.5,203z"/>
			<path d="M285.6,189.8h5.5l-0.2,4.1h0.2c1.6-2.7,4-4.6,6.4-4.6c1.2,0,1.8,0.2,2.3,0.4l-2.2,5.8c-0.6-0.3-1.5-0.3-2.2-0.3
				c-1.8,0-3.3,1.1-4.9,3.9l-2.3,11.8h-6.7L285.6,189.8z"/>
			<path d="M304.1,181.5h6.7l-3.2,15.8h0.2l6.9-7.6h7.4l-8.7,9.3l5,11.7h-6.7l-2.9-7.8l-2.9,2.9l-1,5h-6.6L304.1,181.5z"/>
			<path d="M337.7,187.7l1.2-6.1h6.7l-5.9,29.2h-5.5v-2.6h-0.1c-1.8,1.9-4.3,3.1-6.3,3.1c-3.7,0-5.9-2.8-5.9-7.7
				c0-8,5.4-14.3,11.2-14.3c1.8,0,3.3,0.9,4,2.4h0.1L337.7,187.7z M334.5,203l1.3-6.7c-0.5-1.1-1.5-1.6-2.3-1.6
				c-2.4,0-4.7,3.3-4.7,8c0,2.2,0.8,3.1,1.9,3.1C331.9,205.8,333.4,205.3,334.5,203z"/>
			<path d="M345,202.5c0-8.1,6.1-13.3,11.9-13.3c5,0,8.4,3.5,8.4,8.7c0,8.1-6.1,13.3-11.9,13.3C348.3,211.3,345,207.7,345,202.5z
				 M358.5,198.1c0-2.1-0.8-3.4-2.4-3.4c-2.4,0-4.4,3.3-4.4,7.8c0,2.1,0.8,3.4,2.4,3.4C356.6,205.9,358.5,202.6,358.5,198.1z"/>
			<path d="M369.6,189.8h6.6l-0.2,9.3c-0.1,2.1-0.3,4.2-0.4,6.3h0.2c0.8-2.1,1.5-4.3,2.4-6.3l3.8-9.3h5.7l0.2,9.3
				c0,2.1-0.1,4.2-0.1,6.3h0.2c0.8-2.1,1.3-4.2,2.1-6.3l3.4-9.3h6.2l-8.7,21h-7.8V203c0.1-1.9,0-3.9,0.2-6.1h-0.2
				c-0.8,2.3-1.4,4.2-2.1,6.1l-3,7.8h-7.6L369.6,189.8z"/>
			<path d="M403.1,189.8h5.5v2.7h0.2c1.9-1.7,4.3-3.2,7-3.2c3.4,0,5,1.8,5,5.5c0,0.9-0.1,2-0.3,3l-2.6,13h-6.7l2.4-12.2
				c0.2-0.8,0.3-1.3,0.3-1.8c0-1.2-0.7-1.8-1.8-1.8c-1.2,0-2.2,0.8-3.7,2.4l-2.6,13.4h-6.7L403.1,189.8z"/>
			<path d="M424.6,197.7h10.1l-1,4.7h-10.1L424.6,197.7z"/>
			<path d="M449,189.3c5.1,0,7,3.6,7,8c0,2.1-0.8,4.5-1.2,5h-11.3c0.1,2.8,1.9,3.9,4.4,3.9c1.2,0,2.6-0.7,3.5-1.3l2.4,4.2
				c-1.7,1.2-4.4,2.2-7.8,2.2c-5.1,0-8.7-3.4-8.7-9.1C437.1,194.5,443.3,189.3,449,189.3z M450.3,198.2c0.1-0.3,0.2-0.8,0.2-1.3
				c0-1.4-0.6-2.5-2.4-2.5c-1.6,0-3.3,1.2-4.2,3.9L450.3,198.2L450.3,198.2z"/>
			<path d="M464.2,199.5l-3.5-9.7h6.8l1,3.2c0.3,1.2,0.6,2.4,0.9,3.6h0.2c0.6-1.2,1.3-2.4,2-3.6l1.6-3.2h7.1l-8.1,11.3l3.8,9.7h-6.9
				l-1.1-3.2c-0.4-1.2-0.7-2.4-1.1-3.6h-0.2c-0.7,1.2-1.4,2.4-2.1,3.6l-1.9,3.2h-7.2L464.2,199.5z"/>
			<path d="M485.2,212.9l-1,5.2h-6.7l5.7-28.4h5.5l0.2,2.3h0.1c1.8-1.7,4.1-2.8,6.1-2.8c3.7,0,5.9,2.8,5.9,7.7
				c0,8-5.4,14.3-11.2,14.3c-1.6,0-3.1-0.8-3.9-2.3h-0.1L485.2,212.9z M488.5,197.1l-1.4,7.1c0.4,1.1,1.3,1.6,2.2,1.6
				c2.4,0,4.7-3.3,4.7-8c0-2.2-0.8-3.1-1.9-3.1C491,194.7,489.5,195.2,488.5,197.1z"/>
			<path d="M503.3,202.5c0-8.1,6.1-13.3,11.9-13.3c5,0,8.4,3.5,8.4,8.7c0,8.1-6.1,13.3-11.9,13.3
				C506.7,211.3,503.3,207.7,503.3,202.5z M516.8,198.1c0-2.1-0.8-3.4-2.4-3.4c-2.4,0-4.4,3.3-4.4,7.8c0,2.1,0.8,3.4,2.4,3.4
				C514.9,205.9,516.8,202.6,516.8,198.1z"/>
			<path d="M529.3,189.8h5.5l-0.2,4.1h0.2c1.6-2.7,4-4.6,6.4-4.6c1.2,0,1.8,0.2,2.3,0.4l-2.2,5.8c-0.6-0.3-1.5-0.3-2.2-0.3
				c-1.8,0-3.3,1.1-4.9,3.9l-2.3,11.8h-6.7L529.3,189.8z"/>
			<path d="M544.2,205.4c0-0.9,0.2-1.8,0.3-2.8l1.6-7.6h-2.7l1-5l3-0.3l1.8-5.4h5.6l-1,5.4h4.5l-1,5.2h-4.7l-1.6,7.9
				c-0.1,0.5-0.1,0.9-0.1,1.3c0,1.3,0.7,1.8,2,1.8c0.5,0,1-0.2,1.5-0.4l1.2,4.7c-1.2,0.4-2.9,0.9-5.3,0.9
				C546.1,211.3,544.2,208.8,544.2,205.4z"/>
			<path d="M570.7,189.3c5.1,0,7,3.6,7,8c0,2.1-0.8,4.5-1.2,5h-11.3c0.1,2.8,1.9,3.9,4.4,3.9c1.2,0,2.6-0.7,3.5-1.3l2.4,4.2
				c-1.7,1.2-4.4,2.2-7.8,2.2c-5.1,0-8.7-3.4-8.7-9.1C558.9,194.5,565.1,189.3,570.7,189.3z M572.1,198.2c0.1-0.3,0.2-0.8,0.2-1.3
				c0-1.4-0.6-2.5-2.4-2.5c-1.6,0-3.3,1.2-4.2,3.9L572.1,198.2L572.1,198.2z"/>
			<path d="M583.3,189.8h5.5l-0.2,4.1h0.2c1.6-2.7,4-4.6,6.4-4.6c1.2,0,1.8,0.2,2.3,0.4l-2.2,5.8c-0.6-0.3-1.5-0.3-2.2-0.3
				c-1.8,0-3.3,1.1-4.9,3.9l-2.3,11.8h-6.7L583.3,189.8z"/>
		</g>
	</g>
	<g>
		
			<linearGradient id="SVGID_00000129184907873950131290000013240877349704522661_" gradientUnits="userSpaceOnUse" x1="10.6567" y1="32.112" x2="597.4771" y2="32.112" gradientTransform="matrix(1 0 0 -1 0 232.2433)">
			<stop  offset="0.2945" style="stop-color:#3C68AD"/>
			<stop  offset="0.3552" style="stop-color:#3D557F"/>
			<stop  offset="0.4309" style="stop-color:#333F54"/>
			<stop  offset="0.5002" style="stop-color:#272D37"/>
			<stop  offset="0.5609" style="stop-color:#1B1E23"/>
			<stop  offset="0.6104" style="stop-color:#101113"/>
			<stop  offset="0.6427" style="stop-color:#070707"/>
		</linearGradient>
		<path style="fill:url(#SVGID_00000129184907873950131290000013240877349704522661_);" d="M10.6,202.5c0-7.1,5.4-13.3,12.6-13.3
			c2.7,0,4.7,1.3,5.7,2.6l-3.7,3.9c-0.8-0.8-1.4-1.2-2.4-1.2c-3,0-5.3,3.5-5.3,7.8c0,2.1,1,3.4,3,3.4c1.3,0,2.1-0.6,2.9-1.2l2.8,4.1
			c-1.6,1.2-3.8,2.4-7.1,2.4C14.3,211.3,10.6,208.1,10.6,202.5z"/>
		
			<linearGradient id="SVGID_00000088825139079062675120000010343553380169669823_" gradientUnits="userSpaceOnUse" x1="10.6567" y1="32.0206" x2="597.4771" y2="32.0206" gradientTransform="matrix(1 0 0 -1 0 232.2433)">
			<stop  offset="0.2945" style="stop-color:#3C68AD"/>
			<stop  offset="0.3552" style="stop-color:#3D557F"/>
			<stop  offset="0.4309" style="stop-color:#333F54"/>
			<stop  offset="0.5002" style="stop-color:#272D37"/>
			<stop  offset="0.5609" style="stop-color:#1B1E23"/>
			<stop  offset="0.6104" style="stop-color:#101113"/>
			<stop  offset="0.6427" style="stop-color:#070707"/>
		</linearGradient>
		<path style="fill:url(#SVGID_00000088825139079062675120000010343553380169669823_);" d="M29.4,202.5c0-8.1,6.1-13.3,11.9-13.3
			c5,0,8.4,3.5,8.4,8.7c0,8.1-6.1,13.3-11.9,13.3C32.7,211.3,29.4,207.7,29.4,202.5z M42.9,198.1c0-2.1-0.8-3.4-2.4-3.4
			c-2.4,0-4.4,3.3-4.4,7.8c0,2.1,0.8,3.4,2.4,3.4C41,205.9,42.9,202.6,42.9,198.1z"/>
		
			<linearGradient id="SVGID_00000023253728350547863740000011295140792204774817_" gradientUnits="userSpaceOnUse" x1="10.6567" y1="32.1717" x2="597.4771" y2="32.1717" gradientTransform="matrix(1 0 0 -1 0 232.2433)">
			<stop  offset="0.2945" style="stop-color:#3C68AD"/>
			<stop  offset="0.3552" style="stop-color:#3D557F"/>
			<stop  offset="0.4309" style="stop-color:#333F54"/>
			<stop  offset="0.5002" style="stop-color:#272D37"/>
			<stop  offset="0.5609" style="stop-color:#1B1E23"/>
			<stop  offset="0.6104" style="stop-color:#101113"/>
			<stop  offset="0.6427" style="stop-color:#070707"/>
		</linearGradient>
		<path style="fill:url(#SVGID_00000023253728350547863740000011295140792204774817_);" d="M55.4,189.8h5.5v2.7h0.2
			c1.9-1.7,4.3-3.2,7-3.2c3.4,0,5,1.8,5,5.5c0,0.9-0.1,2-0.3,3l-2.6,13h-6.9l2.4-12.2c0.2-0.8,0.3-1.3,0.3-1.8
			c0-1.2-0.7-1.8-1.8-1.8c-1.2,0-2.2,0.8-3.7,2.4l-2.6,13.4h-6.6L55.4,189.8z"/>
		
			<linearGradient id="SVGID_00000114759576799415742510000005598783780462043031_" gradientUnits="userSpaceOnUse" x1="10.6567" y1="36.3717" x2="597.4771" y2="36.3717" gradientTransform="matrix(1 0 0 -1 0 232.2433)">
			<stop  offset="0.2945" style="stop-color:#3C68AD"/>
			<stop  offset="0.3552" style="stop-color:#3D557F"/>
			<stop  offset="0.4309" style="stop-color:#333F54"/>
			<stop  offset="0.5002" style="stop-color:#272D37"/>
			<stop  offset="0.5609" style="stop-color:#1B1E23"/>
			<stop  offset="0.6104" style="stop-color:#101113"/>
			<stop  offset="0.6427" style="stop-color:#070707"/>
		</linearGradient>
		<path style="fill:url(#SVGID_00000114759576799415742510000005598783780462043031_);" d="M77.5,190l2.8-0.3l0.1-0.6
			c0.8-4.4,3.4-8.1,8.7-8.1c1.7,0,3.4,0.4,4.8,1.2l-2.1,4.7c-0.4-0.3-1.3-0.6-1.9-0.6c-1.4,0-2.3,0.3-2.7,2.6l-0.2,0.8h3.4l-1,5.2
			h-3.5l-3.1,15.8h-6.7l3.2-15.8h-2.7L77.5,190z"/>
		
			<linearGradient id="SVGID_00000163072384448043514100000017082482932652006037_" gradientUnits="userSpaceOnUse" x1="10.6567" y1="35.9641" x2="597.4771" y2="35.9641" gradientTransform="matrix(1 0 0 -1 0 232.2433)">
			<stop  offset="0.2945" style="stop-color:#3C68AD"/>
			<stop  offset="0.3552" style="stop-color:#3D557F"/>
			<stop  offset="0.4309" style="stop-color:#333F54"/>
			<stop  offset="0.5002" style="stop-color:#272D37"/>
			<stop  offset="0.5609" style="stop-color:#1B1E23"/>
			<stop  offset="0.6104" style="stop-color:#101113"/>
			<stop  offset="0.6427" style="stop-color:#070707"/>
		</linearGradient>
		<path style="fill:url(#SVGID_00000163072384448043514100000017082482932652006037_);" d="M90.4,206.6c0-0.8,0.1-1.7,0.3-2.9
			l4.5-22.3h6.7l-4.5,22.5c-0.1,0.4-0.1,0.6-0.1,0.8c0,0.8,0.4,1,0.8,1c0.3,0,0.4,0,0.8-0.1l-0.3,5c-0.8,0.3-1.9,0.5-3.4,0.5
			C91.8,211.3,90.4,209.5,90.4,206.6z"/>
		
			<linearGradient id="SVGID_00000157267861774246367970000011722598238857889456_" gradientUnits="userSpaceOnUse" x1="10.6567" y1="31.6717" x2="597.4771" y2="31.6717" gradientTransform="matrix(1 0 0 -1 0 232.2433)">
			<stop  offset="0.2945" style="stop-color:#3C68AD"/>
			<stop  offset="0.3552" style="stop-color:#3D557F"/>
			<stop  offset="0.4309" style="stop-color:#333F54"/>
			<stop  offset="0.5002" style="stop-color:#272D37"/>
			<stop  offset="0.5609" style="stop-color:#1B1E23"/>
			<stop  offset="0.6104" style="stop-color:#101113"/>
			<stop  offset="0.6427" style="stop-color:#070707"/>
		</linearGradient>
		<path style="fill:url(#SVGID_00000157267861774246367970000011722598238857889456_);" d="M119.7,210.8h-5.5v-2.7H114
			c-1.8,1.7-4.2,3.2-6.7,3.2c-3.4,0-5-1.8-5-5.5c0-0.9,0.1-2,0.3-3l2.6-13h6.7l-2.4,12.2c-0.2,0.8-0.3,1.3-0.3,1.8
			c0,1.2,0.7,1.8,1.8,1.8c1.1,0,2.1-0.8,3.4-2.4l2.6-13.4h6.7L119.7,210.8z"/>
		
			<linearGradient id="SVGID_00000157279735370804303550000002516758451207224499_" gradientUnits="userSpaceOnUse" x1="10.6567" y1="31.9217" x2="597.4771" y2="31.9217" gradientTransform="matrix(1 0 0 -1 0 232.2433)">
			<stop  offset="0.2945" style="stop-color:#3C68AD"/>
			<stop  offset="0.3552" style="stop-color:#3D557F"/>
			<stop  offset="0.4309" style="stop-color:#333F54"/>
			<stop  offset="0.5002" style="stop-color:#272D37"/>
			<stop  offset="0.5609" style="stop-color:#1B1E23"/>
			<stop  offset="0.6104" style="stop-color:#101113"/>
			<stop  offset="0.6427" style="stop-color:#070707"/>
		</linearGradient>
		<path style="fill:url(#SVGID_00000157279735370804303550000002516758451207224499_);" d="M137.1,189.3c5.1,0,7,3.6,7,8
			c0,2.1-0.8,4.5-1.2,5h-11.3c0.1,2.8,1.9,3.9,4.4,3.9c1.2,0,2.6-0.7,3.5-1.3l2.4,4.2c-1.7,1.2-4.4,2.2-7.8,2.2
			c-5.1,0-8.7-3.4-8.7-9.1C125.3,194.5,131.5,189.3,137.1,189.3z M138.5,198.2c0.1-0.3,0.2-0.8,0.2-1.3c0-1.4-0.6-2.5-2.4-2.5
			c-1.6,0-3.3,1.2-4.2,3.9L138.5,198.2L138.5,198.2z"/>
		
			<linearGradient id="SVGID_00000178182721756432331950000009118459657022128775_" gradientUnits="userSpaceOnUse" x1="10.6567" y1="32.1717" x2="597.4771" y2="32.1717" gradientTransform="matrix(1 0 0 -1 0 232.2433)">
			<stop  offset="0.2945" style="stop-color:#3C68AD"/>
			<stop  offset="0.3552" style="stop-color:#3D557F"/>
			<stop  offset="0.4309" style="stop-color:#333F54"/>
			<stop  offset="0.5002" style="stop-color:#272D37"/>
			<stop  offset="0.5609" style="stop-color:#1B1E23"/>
			<stop  offset="0.6104" style="stop-color:#101113"/>
			<stop  offset="0.6427" style="stop-color:#070707"/>
		</linearGradient>
		<path style="fill:url(#SVGID_00000178182721756432331950000009118459657022128775_);" d="M149.7,189.8h5.5v2.7h0.2
			c1.9-1.7,4.3-3.2,7-3.2c3.4,0,5,1.8,5,5.5c0,0.9-0.1,2-0.3,3l-2.6,13h-6.7l2.4-12.2c0.2-0.8,0.3-1.3,0.3-1.8
			c0-1.2-0.7-1.8-1.8-1.8c-1.2,0-2.2,0.8-3.7,2.4l-2.6,13.4h-6.7L149.7,189.8z"/>
		
			<linearGradient id="SVGID_00000020376387441067876110000007565942290538791086_" gradientUnits="userSpaceOnUse" x1="10.6567" y1="32.112" x2="597.4771" y2="32.112" gradientTransform="matrix(1 0 0 -1 0 232.2433)">
			<stop  offset="0.2945" style="stop-color:#3C68AD"/>
			<stop  offset="0.3552" style="stop-color:#3D557F"/>
			<stop  offset="0.4309" style="stop-color:#333F54"/>
			<stop  offset="0.5002" style="stop-color:#272D37"/>
			<stop  offset="0.5609" style="stop-color:#1B1E23"/>
			<stop  offset="0.6104" style="stop-color:#101113"/>
			<stop  offset="0.6427" style="stop-color:#070707"/>
		</linearGradient>
		<path style="fill:url(#SVGID_00000020376387441067876110000007565942290538791086_);" d="M170,202.5c0-7.1,5.4-13.3,12.6-13.3
			c2.7,0,4.7,1.3,5.7,2.6l-3.7,3.9c-0.8-0.8-1.4-1.2-2.4-1.2c-3,0-5.3,3.5-5.3,7.8c0,2.1,1,3.4,3,3.4c1.3,0,2.1-0.6,2.9-1.2l2.8,4.1
			c-1.6,1.2-3.8,2.4-7.1,2.4C173.7,211.3,170,208.1,170,202.5z"/>
		
			<linearGradient id="SVGID_00000130627912525920673840000010468283185131792512_" gradientUnits="userSpaceOnUse" x1="10.6567" y1="31.9217" x2="597.4771" y2="31.9217" gradientTransform="matrix(1 0 0 -1 0 232.2433)">
			<stop  offset="0.2945" style="stop-color:#3C68AD"/>
			<stop  offset="0.3552" style="stop-color:#3D557F"/>
			<stop  offset="0.4309" style="stop-color:#333F54"/>
			<stop  offset="0.5002" style="stop-color:#272D37"/>
			<stop  offset="0.5609" style="stop-color:#1B1E23"/>
			<stop  offset="0.6104" style="stop-color:#101113"/>
			<stop  offset="0.6427" style="stop-color:#070707"/>
		</linearGradient>
		<path style="fill:url(#SVGID_00000130627912525920673840000010468283185131792512_);" d="M200.6,189.3c5.1,0,7,3.6,7,8
			c0,2.1-0.8,4.5-1.2,5h-11.3c0.1,2.8,1.9,3.9,4.4,3.9c1.2,0,2.6-0.7,3.5-1.3l2.4,4.2c-1.7,1.2-4.4,2.2-7.8,2.2
			c-5.1,0-8.7-3.4-8.7-9.1C188.7,194.5,194.9,189.3,200.6,189.3z M201.9,198.2c0.1-0.3,0.2-0.8,0.2-1.3c0-1.4-0.6-2.5-2.4-2.5
			c-1.6,0-3.3,1.2-4.2,3.9L201.9,198.2L201.9,198.2z"/>
		
			<linearGradient id="SVGID_00000021805237132306187280000009131042625274763431_" gradientUnits="userSpaceOnUse" x1="10.6567" y1="32.1716" x2="597.4771" y2="32.1716" gradientTransform="matrix(1 0 0 -1 0 232.2433)">
			<stop  offset="0.2945" style="stop-color:#3C68AD"/>
			<stop  offset="0.3552" style="stop-color:#3D557F"/>
			<stop  offset="0.4309" style="stop-color:#333F54"/>
			<stop  offset="0.5002" style="stop-color:#272D37"/>
			<stop  offset="0.5609" style="stop-color:#1B1E23"/>
			<stop  offset="0.6104" style="stop-color:#101113"/>
			<stop  offset="0.6427" style="stop-color:#070707"/>
		</linearGradient>
		<path style="fill:url(#SVGID_00000021805237132306187280000009131042625274763431_);" d="M211.1,197.7h10.1l-1,4.7h-10.1
			L211.1,197.7z"/>
		
			<linearGradient id="SVGID_00000054251867338422568470000016183106430390696331_" gradientUnits="userSpaceOnUse" x1="10.6567" y1="32.1717" x2="597.4771" y2="32.1717" gradientTransform="matrix(1 0 0 -1 0 232.2433)">
			<stop  offset="0.2945" style="stop-color:#3C68AD"/>
			<stop  offset="0.3552" style="stop-color:#3D557F"/>
			<stop  offset="0.4309" style="stop-color:#333F54"/>
			<stop  offset="0.5002" style="stop-color:#272D37"/>
			<stop  offset="0.5609" style="stop-color:#1B1E23"/>
			<stop  offset="0.6104" style="stop-color:#101113"/>
			<stop  offset="0.6427" style="stop-color:#070707"/>
		</linearGradient>
		<path style="fill:url(#SVGID_00000054251867338422568470000016183106430390696331_);" d="M226.9,189.8h5.5v2.7h0.2
			c1.9-1.7,4.3-3.2,6.7-3.2c3,0,4.2,1.3,4.9,3.5c2.2-2,4.5-3.5,7-3.5c3.4,0,5,1.8,5,5.5c0,0.9-0.1,2-0.3,3l-2.6,13h-6.7l2.4-12.2
			c0.2-0.8,0.3-1.3,0.3-1.8c0-1.2-0.7-1.8-1.8-1.8c-0.8,0-1.9,0.8-3.4,2.4l-2.7,13.4h-6.7l2.4-12.2c0.2-0.8,0.3-1.3,0.3-1.8
			c0-1.2-0.7-1.8-1.7-1.8c-0.9,0-2,0.8-3.5,2.4l-2.6,13.4h-6.7L226.9,189.8z"/>
		
			<linearGradient id="SVGID_00000078758383240602156070000008516547936931656619_" gradientUnits="userSpaceOnUse" x1="10.6567" y1="32.0204" x2="597.4771" y2="32.0204" gradientTransform="matrix(1 0 0 -1 0 232.2433)">
			<stop  offset="0.2945" style="stop-color:#3C68AD"/>
			<stop  offset="0.3552" style="stop-color:#3D557F"/>
			<stop  offset="0.4309" style="stop-color:#333F54"/>
			<stop  offset="0.5002" style="stop-color:#272D37"/>
			<stop  offset="0.5609" style="stop-color:#1B1E23"/>
			<stop  offset="0.6104" style="stop-color:#101113"/>
			<stop  offset="0.6427" style="stop-color:#070707"/>
		</linearGradient>
		<path style="fill:url(#SVGID_00000078758383240602156070000008516547936931656619_);" d="M258.9,203.5c0-8,5.4-14.3,11.2-14.3
			c1.8,0,3.6,1,4.4,2.6h0.1l0.9-2.1h5.4l-4.2,21h-5.5v-2.6h-0.1c-1.8,1.9-4.3,3.1-6.3,3.1C261,211.3,258.9,208.5,258.9,203.5z
			 M271.5,203l1.3-6.7c-0.5-1.1-1.5-1.6-2.3-1.6c-2.4,0-4.7,3.3-4.7,8c0,2.2,0.8,3.1,1.9,3.1C268.9,205.8,270.4,205.3,271.5,203z"/>
		
			<linearGradient id="SVGID_00000158011382684015058810000013538861104403269006_" gradientUnits="userSpaceOnUse" x1="10.6567" y1="32.1217" x2="597.4771" y2="32.1217" gradientTransform="matrix(1 0 0 -1 0 232.2433)">
			<stop  offset="0.2945" style="stop-color:#3C68AD"/>
			<stop  offset="0.3552" style="stop-color:#3D557F"/>
			<stop  offset="0.4309" style="stop-color:#333F54"/>
			<stop  offset="0.5002" style="stop-color:#272D37"/>
			<stop  offset="0.5609" style="stop-color:#1B1E23"/>
			<stop  offset="0.6104" style="stop-color:#101113"/>
			<stop  offset="0.6427" style="stop-color:#070707"/>
		</linearGradient>
		<path style="fill:url(#SVGID_00000158011382684015058810000013538861104403269006_);" d="M285.6,189.8h5.5l-0.2,4.1h0.2
			c1.6-2.7,4-4.6,6.4-4.6c1.2,0,1.8,0.2,2.3,0.4l-2.2,5.8c-0.6-0.3-1.5-0.3-2.2-0.3c-1.8,0-3.3,1.1-4.9,3.9l-2.3,11.8h-6.7
			L285.6,189.8z"/>
		
			<linearGradient id="SVGID_00000176759363924682446000000015941936786372234636_" gradientUnits="userSpaceOnUse" x1="10.6567" y1="36.0717" x2="597.4771" y2="36.0717" gradientTransform="matrix(1 0 0 -1 0 232.2433)">
			<stop  offset="0.2945" style="stop-color:#3C68AD"/>
			<stop  offset="0.3552" style="stop-color:#3D557F"/>
			<stop  offset="0.4309" style="stop-color:#333F54"/>
			<stop  offset="0.5002" style="stop-color:#272D37"/>
			<stop  offset="0.5609" style="stop-color:#1B1E23"/>
			<stop  offset="0.6104" style="stop-color:#101113"/>
			<stop  offset="0.6427" style="stop-color:#070707"/>
		</linearGradient>
		<path style="fill:url(#SVGID_00000176759363924682446000000015941936786372234636_);" d="M304.1,181.5h6.7l-3.2,15.8h0.2l6.9-7.6
			h7.4l-8.7,9.3l5,11.7h-6.7l-2.9-7.8l-2.9,2.9l-1,5h-6.6L304.1,181.5z"/>
		
			<linearGradient id="SVGID_00000003087572848140781140000018330576592745056950_" gradientUnits="userSpaceOnUse" x1="10.6567" y1="35.7717" x2="597.4771" y2="35.7717" gradientTransform="matrix(1 0 0 -1 0 232.2433)">
			<stop  offset="0.2945" style="stop-color:#3C68AD"/>
			<stop  offset="0.3552" style="stop-color:#3D557F"/>
			<stop  offset="0.4309" style="stop-color:#333F54"/>
			<stop  offset="0.5002" style="stop-color:#272D37"/>
			<stop  offset="0.5609" style="stop-color:#1B1E23"/>
			<stop  offset="0.6104" style="stop-color:#101113"/>
			<stop  offset="0.6427" style="stop-color:#070707"/>
		</linearGradient>
		<path style="fill:url(#SVGID_00000003087572848140781140000018330576592745056950_);" d="M337.7,187.7l1.2-6.1h6.7l-5.9,29.2h-5.5
			v-2.6h-0.1c-1.8,1.9-4.3,3.1-6.3,3.1c-3.7,0-5.9-2.8-5.9-7.7c0-8,5.4-14.3,11.2-14.3c1.8,0,3.3,0.9,4,2.4h0.1L337.7,187.7z
			 M334.5,203l1.3-6.7c-0.5-1.1-1.5-1.6-2.3-1.6c-2.4,0-4.7,3.3-4.7,8c0,2.2,0.8,3.1,1.9,3.1C331.9,205.8,333.4,205.3,334.5,203z"/>
		
			<linearGradient id="SVGID_00000059268891752017008530000007897732875649117356_" gradientUnits="userSpaceOnUse" x1="10.6567" y1="32.0206" x2="597.4771" y2="32.0206" gradientTransform="matrix(1 0 0 -1 0 232.2433)">
			<stop  offset="0.2945" style="stop-color:#3C68AD"/>
			<stop  offset="0.3552" style="stop-color:#3D557F"/>
			<stop  offset="0.4309" style="stop-color:#333F54"/>
			<stop  offset="0.5002" style="stop-color:#272D37"/>
			<stop  offset="0.5609" style="stop-color:#1B1E23"/>
			<stop  offset="0.6104" style="stop-color:#101113"/>
			<stop  offset="0.6427" style="stop-color:#070707"/>
		</linearGradient>
		<path style="fill:url(#SVGID_00000059268891752017008530000007897732875649117356_);" d="M345,202.5c0-8.1,6.1-13.3,11.9-13.3
			c5,0,8.4,3.5,8.4,8.7c0,8.1-6.1,13.3-11.9,13.3C348.3,211.3,345,207.7,345,202.5z M358.5,198.1c0-2.1-0.8-3.4-2.4-3.4
			c-2.4,0-4.4,3.3-4.4,7.8c0,2.1,0.8,3.4,2.4,3.4C356.6,205.9,358.5,202.6,358.5,198.1z"/>
		
			<linearGradient id="SVGID_00000060740445514525317880000018000123784875190417_" gradientUnits="userSpaceOnUse" x1="10.6567" y1="31.9217" x2="597.4771" y2="31.9217" gradientTransform="matrix(1 0 0 -1 0 232.2433)">
			<stop  offset="0.2945" style="stop-color:#3C68AD"/>
			<stop  offset="0.3552" style="stop-color:#3D557F"/>
			<stop  offset="0.4309" style="stop-color:#333F54"/>
			<stop  offset="0.5002" style="stop-color:#272D37"/>
			<stop  offset="0.5609" style="stop-color:#1B1E23"/>
			<stop  offset="0.6104" style="stop-color:#101113"/>
			<stop  offset="0.6427" style="stop-color:#070707"/>
		</linearGradient>
		<path style="fill:url(#SVGID_00000060740445514525317880000018000123784875190417_);" d="M369.6,189.8h6.6l-0.2,9.3
			c-0.1,2.1-0.3,4.2-0.4,6.3h0.2c0.8-2.1,1.5-4.3,2.4-6.3l3.8-9.3h5.7l0.2,9.3c0,2.1-0.1,4.2-0.1,6.3h0.2c0.8-2.1,1.3-4.2,2.1-6.3
			l3.4-9.3h6.2l-8.7,21h-7.8V203c0.1-1.9,0-3.9,0.2-6.1h-0.2c-0.8,2.3-1.4,4.2-2.1,6.1l-3,7.8h-7.6L369.6,189.8z"/>
		
			<linearGradient id="SVGID_00000109727964791523930270000006290759850524497283_" gradientUnits="userSpaceOnUse" x1="10.6567" y1="32.1717" x2="597.4771" y2="32.1717" gradientTransform="matrix(1 0 0 -1 0 232.2433)">
			<stop  offset="0.2945" style="stop-color:#3C68AD"/>
			<stop  offset="0.3552" style="stop-color:#3D557F"/>
			<stop  offset="0.4309" style="stop-color:#333F54"/>
			<stop  offset="0.5002" style="stop-color:#272D37"/>
			<stop  offset="0.5609" style="stop-color:#1B1E23"/>
			<stop  offset="0.6104" style="stop-color:#101113"/>
			<stop  offset="0.6427" style="stop-color:#070707"/>
		</linearGradient>
		<path style="fill:url(#SVGID_00000109727964791523930270000006290759850524497283_);" d="M403.1,189.8h5.5v2.7h0.2
			c1.9-1.7,4.3-3.2,7-3.2c3.4,0,5,1.8,5,5.5c0,0.9-0.1,2-0.3,3l-2.6,13h-6.7l2.4-12.2c0.2-0.8,0.3-1.3,0.3-1.8
			c0-1.2-0.7-1.8-1.8-1.8c-1.2,0-2.2,0.8-3.7,2.4l-2.6,13.4h-6.7L403.1,189.8z"/>
		
			<linearGradient id="SVGID_00000097470537392068748540000010402016435036021890_" gradientUnits="userSpaceOnUse" x1="10.6567" y1="32.1716" x2="597.4771" y2="32.1716" gradientTransform="matrix(1 0 0 -1 0 232.2433)">
			<stop  offset="0.2945" style="stop-color:#3C68AD"/>
			<stop  offset="0.3552" style="stop-color:#3D557F"/>
			<stop  offset="0.4309" style="stop-color:#333F54"/>
			<stop  offset="0.5002" style="stop-color:#272D37"/>
			<stop  offset="0.5609" style="stop-color:#1B1E23"/>
			<stop  offset="0.6104" style="stop-color:#101113"/>
			<stop  offset="0.6427" style="stop-color:#070707"/>
		</linearGradient>
		<path style="fill:url(#SVGID_00000097470537392068748540000010402016435036021890_);" d="M424.6,197.7h10.1l-1,4.7h-10.1
			L424.6,197.7z"/>
		
			<linearGradient id="SVGID_00000028315380441442519550000010986202349273979814_" gradientUnits="userSpaceOnUse" x1="10.6567" y1="31.9217" x2="597.4771" y2="31.9217" gradientTransform="matrix(1 0 0 -1 0 232.2433)">
			<stop  offset="0.2945" style="stop-color:#3C68AD"/>
			<stop  offset="0.3552" style="stop-color:#3D557F"/>
			<stop  offset="0.4309" style="stop-color:#333F54"/>
			<stop  offset="0.5002" style="stop-color:#272D37"/>
			<stop  offset="0.5609" style="stop-color:#1B1E23"/>
			<stop  offset="0.6104" style="stop-color:#101113"/>
			<stop  offset="0.6427" style="stop-color:#070707"/>
		</linearGradient>
		<path style="fill:url(#SVGID_00000028315380441442519550000010986202349273979814_);" d="M449,189.3c5.1,0,7,3.6,7,8
			c0,2.1-0.8,4.5-1.2,5h-11.3c0.1,2.8,1.9,3.9,4.4,3.9c1.2,0,2.6-0.7,3.5-1.3l2.4,4.2c-1.7,1.2-4.4,2.2-7.8,2.2
			c-5.1,0-8.7-3.4-8.7-9.1C437.1,194.5,443.3,189.3,449,189.3z M450.3,198.2c0.1-0.3,0.2-0.8,0.2-1.3c0-1.4-0.6-2.5-2.4-2.5
			c-1.6,0-3.3,1.2-4.2,3.9L450.3,198.2L450.3,198.2z"/>
		
			<linearGradient id="SVGID_00000087398504094417769160000016308811627188409020_" gradientUnits="userSpaceOnUse" x1="10.6567" y1="31.9217" x2="597.4771" y2="31.9217" gradientTransform="matrix(1 0 0 -1 0 232.2433)">
			<stop  offset="0.2945" style="stop-color:#3C68AD"/>
			<stop  offset="0.3552" style="stop-color:#3D557F"/>
			<stop  offset="0.4309" style="stop-color:#333F54"/>
			<stop  offset="0.5002" style="stop-color:#272D37"/>
			<stop  offset="0.5609" style="stop-color:#1B1E23"/>
			<stop  offset="0.6104" style="stop-color:#101113"/>
			<stop  offset="0.6427" style="stop-color:#070707"/>
		</linearGradient>
		<path style="fill:url(#SVGID_00000087398504094417769160000016308811627188409020_);" d="M464.2,199.5l-3.5-9.7h6.8l1,3.2
			c0.3,1.2,0.6,2.4,0.9,3.6h0.2c0.6-1.2,1.3-2.4,2-3.6l1.6-3.2h7.1l-8.1,11.3l3.8,9.7h-6.9l-1.1-3.2c-0.4-1.2-0.7-2.4-1.1-3.6h-0.2
			c-0.7,1.2-1.4,2.4-2.1,3.6l-1.9,3.2h-7.2L464.2,199.5z"/>
		
			<linearGradient id="SVGID_00000008145140463387043690000018425959789886173874_" gradientUnits="userSpaceOnUse" x1="10.6567" y1="28.5716" x2="597.4771" y2="28.5716" gradientTransform="matrix(1 0 0 -1 0 232.2433)">
			<stop  offset="0.2945" style="stop-color:#3C68AD"/>
			<stop  offset="0.3552" style="stop-color:#3D557F"/>
			<stop  offset="0.4309" style="stop-color:#333F54"/>
			<stop  offset="0.5002" style="stop-color:#272D37"/>
			<stop  offset="0.5609" style="stop-color:#1B1E23"/>
			<stop  offset="0.6104" style="stop-color:#101113"/>
			<stop  offset="0.6427" style="stop-color:#070707"/>
		</linearGradient>
		<path style="fill:url(#SVGID_00000008145140463387043690000018425959789886173874_);" d="M485.2,212.9l-1,5.2h-6.7l5.7-28.4h5.5
			l0.2,2.3h0.1c1.8-1.7,4.1-2.8,6.1-2.8c3.7,0,5.9,2.8,5.9,7.7c0,8-5.4,14.3-11.2,14.3c-1.6,0-3.1-0.8-3.9-2.3h-0.1L485.2,212.9z
			 M488.5,197.1l-1.4,7.1c0.4,1.1,1.3,1.6,2.2,1.6c2.4,0,4.7-3.3,4.7-8c0-2.2-0.8-3.1-1.9-3.1C491,194.7,489.5,195.2,488.5,197.1z"
			/>
		
			<linearGradient id="SVGID_00000122696930399881873380000014037492560166055575_" gradientUnits="userSpaceOnUse" x1="10.6567" y1="32.0206" x2="597.4771" y2="32.0206" gradientTransform="matrix(1 0 0 -1 0 232.2433)">
			<stop  offset="0.2945" style="stop-color:#3C68AD"/>
			<stop  offset="0.3552" style="stop-color:#3D557F"/>
			<stop  offset="0.4309" style="stop-color:#333F54"/>
			<stop  offset="0.5002" style="stop-color:#272D37"/>
			<stop  offset="0.5609" style="stop-color:#1B1E23"/>
			<stop  offset="0.6104" style="stop-color:#101113"/>
			<stop  offset="0.6427" style="stop-color:#070707"/>
		</linearGradient>
		<path style="fill:url(#SVGID_00000122696930399881873380000014037492560166055575_);" d="M503.3,202.5c0-8.1,6.1-13.3,11.9-13.3
			c5,0,8.4,3.5,8.4,8.7c0,8.1-6.1,13.3-11.9,13.3C506.7,211.3,503.3,207.7,503.3,202.5z M516.8,198.1c0-2.1-0.8-3.4-2.4-3.4
			c-2.4,0-4.4,3.3-4.4,7.8c0,2.1,0.8,3.4,2.4,3.4C514.9,205.9,516.8,202.6,516.8,198.1z"/>
		
			<linearGradient id="SVGID_00000011747747958424971300000008790624544552242309_" gradientUnits="userSpaceOnUse" x1="10.6567" y1="32.1217" x2="597.4771" y2="32.1217" gradientTransform="matrix(1 0 0 -1 0 232.2433)">
			<stop  offset="0.2945" style="stop-color:#3C68AD"/>
			<stop  offset="0.3552" style="stop-color:#3D557F"/>
			<stop  offset="0.4309" style="stop-color:#333F54"/>
			<stop  offset="0.5002" style="stop-color:#272D37"/>
			<stop  offset="0.5609" style="stop-color:#1B1E23"/>
			<stop  offset="0.6104" style="stop-color:#101113"/>
			<stop  offset="0.6427" style="stop-color:#070707"/>
		</linearGradient>
		<path style="fill:url(#SVGID_00000011747747958424971300000008790624544552242309_);" d="M529.3,189.8h5.5l-0.2,4.1h0.2
			c1.6-2.7,4-4.6,6.4-4.6c1.2,0,1.8,0.2,2.3,0.4l-2.2,5.8c-0.6-0.3-1.5-0.3-2.2-0.3c-1.8,0-3.3,1.1-4.9,3.9l-2.3,11.8h-6.7
			L529.3,189.8z"/>
		
			<linearGradient id="SVGID_00000172410241487274944210000000490996686506042771_" gradientUnits="userSpaceOnUse" x1="10.6567" y1="34.5161" x2="597.4771" y2="34.5161" gradientTransform="matrix(1 0 0 -1 0 232.2433)">
			<stop  offset="0.2945" style="stop-color:#3C68AD"/>
			<stop  offset="0.3552" style="stop-color:#3D557F"/>
			<stop  offset="0.4309" style="stop-color:#333F54"/>
			<stop  offset="0.5002" style="stop-color:#272D37"/>
			<stop  offset="0.5609" style="stop-color:#1B1E23"/>
			<stop  offset="0.6104" style="stop-color:#101113"/>
			<stop  offset="0.6427" style="stop-color:#070707"/>
		</linearGradient>
		<path style="fill:url(#SVGID_00000172410241487274944210000000490996686506042771_);" d="M544.2,205.4c0-0.9,0.2-1.8,0.3-2.8
			l1.6-7.6h-2.7l1-5l3-0.3l1.8-5.4h5.6l-1,5.4h4.5l-1,5.2h-4.7l-1.6,7.9c-0.1,0.5-0.1,0.9-0.1,1.3c0,1.3,0.7,1.8,2,1.8
			c0.5,0,1-0.2,1.5-0.4l1.2,4.7c-1.2,0.4-2.9,0.9-5.3,0.9C546.1,211.3,544.2,208.8,544.2,205.4z"/>
		
			<linearGradient id="SVGID_00000029763552487251092690000018334272000702371984_" gradientUnits="userSpaceOnUse" x1="10.6567" y1="31.9217" x2="597.4771" y2="31.9217" gradientTransform="matrix(1 0 0 -1 0 232.2433)">
			<stop  offset="0.2945" style="stop-color:#3C68AD"/>
			<stop  offset="0.3552" style="stop-color:#3D557F"/>
			<stop  offset="0.4309" style="stop-color:#333F54"/>
			<stop  offset="0.5002" style="stop-color:#272D37"/>
			<stop  offset="0.5609" style="stop-color:#1B1E23"/>
			<stop  offset="0.6104" style="stop-color:#101113"/>
			<stop  offset="0.6427" style="stop-color:#070707"/>
		</linearGradient>
		<path style="fill:url(#SVGID_00000029763552487251092690000018334272000702371984_);" d="M570.7,189.3c5.1,0,7,3.6,7,8
			c0,2.1-0.8,4.5-1.2,5h-11.3c0.1,2.8,1.9,3.9,4.4,3.9c1.2,0,2.6-0.7,3.5-1.3l2.4,4.2c-1.7,1.2-4.4,2.2-7.8,2.2
			c-5.1,0-8.7-3.4-8.7-9.1C558.9,194.5,565.1,189.3,570.7,189.3z M572.1,198.2c0.1-0.3,0.2-0.8,0.2-1.3c0-1.4-0.6-2.5-2.4-2.5
			c-1.6,0-3.3,1.2-4.2,3.9L572.1,198.2L572.1,198.2z"/>
		
			<linearGradient id="SVGID_00000085972330422621872580000011967973037433203617_" gradientUnits="userSpaceOnUse" x1="10.6567" y1="32.1217" x2="597.4771" y2="32.1217" gradientTransform="matrix(1 0 0 -1 0 232.2433)">
			<stop  offset="0.2945" style="stop-color:#3C68AD"/>
			<stop  offset="0.3552" style="stop-color:#3D557F"/>
			<stop  offset="0.4309" style="stop-color:#333F54"/>
			<stop  offset="0.5002" style="stop-color:#272D37"/>
			<stop  offset="0.5609" style="stop-color:#1B1E23"/>
			<stop  offset="0.6104" style="stop-color:#101113"/>
			<stop  offset="0.6427" style="stop-color:#070707"/>
		</linearGradient>
		<path style="fill:url(#SVGID_00000085972330422621872580000011967973037433203617_);" d="M583.3,189.8h5.5l-0.2,4.1h0.2
			c1.6-2.7,4-4.6,6.4-4.6c1.2,0,1.8,0.2,2.3,0.4l-2.2,5.8c-0.6-0.3-1.5-0.3-2.2-0.3c-1.8,0-3.3,1.1-4.9,3.9l-2.3,11.8h-6.7
			L583.3,189.8z"/>
	</g>
</g>
</svg>
